<?xml version="1.0" encoding="UTF-8"?>
<svg xmlns="http://www.w3.org/2000/svg" width="210" height="62" viewBox="0 0 210 62" version="1.1" shape-rendering="geometricPrecision">
  <title>OCEANEERING logo vetorizado</title>
  <desc>Vetorização em contornos SVG a partir do arquivo OII-black.png, sem imagem raster incorporada.</desc>
  <g id="OCEANEERING-logo" fill="#040707" stroke="none">
    <path id="alpha-255" fill-rule="evenodd" d="M 177 26 L 176 27 L 175 27 L 174 28 L 174 29 L 173 30 L 173 32 L 172 33 L 172 41 L 173 42 L 173 43 L 174 44 L 174 45 L 176 47 L 177 47 L 178 48 L 182 48 L 183 47 L 184 47 L 187 44 L 187 43 L 188 42 L 188 36 L 180 36 L 180 39 L 183 39 L 184 40 L 184 43 L 183 44 L 182 44 L 181 45 L 179 45 L 176 42 L 176 32 L 177 31 L 177 30 L 178 29 L 182 29 L 184 31 L 184 33 L 188 33 L 188 32 L 187 31 L 187 30 L 186 29 L 186 28 L 185 27 L 184 27 L 183 26 Z M 155 26 L 155 48 L 158 48 L 158 36 L 159 35 L 160 36 L 160 37 L 161 38 L 161 39 L 163 41 L 163 42 L 164 43 L 164 44 L 165 45 L 165 46 L 166 47 L 166 48 L 169 48 L 169 26 L 166 26 L 166 36 L 165 37 L 163 35 L 163 34 L 162 33 L 162 32 L 161 31 L 161 30 L 159 28 L 159 27 L 158 26 Z M 149 26 L 149 48 L 152 48 L 152 26 Z M 132 26 L 132 48 L 135 48 L 135 40 L 136 39 L 138 41 L 138 42 L 140 44 L 140 45 L 141 46 L 141 47 L 142 48 L 145 48 L 145 47 L 144 46 L 144 45 L 142 43 L 142 42 L 141 41 L 141 40 L 140 39 L 141 38 L 142 38 L 144 36 L 144 35 L 145 34 L 145 31 L 144 30 L 144 29 L 142 27 L 141 27 L 140 26 Z M 135 30 L 136 29 L 139 29 L 141 31 L 141 35 L 140 36 L 136 36 L 135 35 Z M 118 26 L 118 48 L 128 48 L 128 45 L 122 45 L 121 44 L 121 39 L 122 38 L 128 38 L 128 35 L 122 35 L 121 34 L 121 30 L 122 29 L 128 29 L 128 26 Z M 104 26 L 104 48 L 114 48 L 114 45 L 108 45 L 107 44 L 107 39 L 108 38 L 114 38 L 114 35 L 108 35 L 107 34 L 107 30 L 108 29 L 114 29 L 114 26 Z M 86 26 L 86 48 L 89 48 L 89 37 L 90 36 L 92 38 L 92 39 L 93 40 L 93 41 L 94 42 L 94 43 L 95 44 L 95 45 L 96 46 L 96 47 L 97 48 L 99 48 L 99 26 L 97 26 L 97 36 L 96 37 L 95 37 L 94 36 L 94 35 L 93 34 L 93 33 L 92 32 L 92 31 L 91 30 L 91 29 L 90 28 L 90 27 L 89 26 Z M 73 26 L 72 27 L 72 29 L 71 30 L 71 33 L 70 34 L 70 36 L 69 37 L 69 40 L 68 41 L 68 43 L 67 44 L 67 46 L 66 47 L 66 48 L 70 48 L 70 46 L 71 45 L 71 44 L 72 43 L 77 43 L 78 44 L 78 45 L 79 46 L 79 48 L 83 48 L 83 47 L 82 46 L 82 44 L 81 43 L 81 41 L 80 40 L 80 38 L 79 37 L 79 34 L 78 33 L 78 31 L 77 30 L 77 28 L 76 27 L 76 26 Z M 73 33 L 74 32 L 76 34 L 76 37 L 77 38 L 77 39 L 76 40 L 73 40 L 72 39 L 72 38 L 73 37 Z M 53 26 L 53 48 L 63 48 L 63 45 L 57 45 L 56 44 L 56 39 L 57 38 L 63 38 L 63 35 L 57 35 L 56 34 L 56 30 L 57 29 L 63 29 L 63 26 Z M 38 26 L 35 29 L 35 31 L 34 32 L 34 42 L 35 43 L 35 44 L 38 47 L 39 47 L 40 48 L 43 48 L 44 47 L 45 47 L 46 46 L 47 46 L 47 45 L 49 43 L 49 40 L 46 40 L 46 41 L 45 42 L 45 43 L 43 45 L 41 45 L 40 44 L 39 44 L 38 43 L 38 41 L 37 40 L 37 33 L 38 32 L 38 31 L 40 29 L 44 29 L 45 30 L 45 31 L 46 32 L 46 34 L 49 34 L 49 31 L 48 30 L 48 29 L 45 26 Z M 20 26 L 16 30 L 16 32 L 15 33 L 15 40 L 16 41 L 16 43 L 17 44 L 17 45 L 19 47 L 20 47 L 21 48 L 25 48 L 26 47 L 27 47 L 30 44 L 30 42 L 31 41 L 31 33 L 30 32 L 30 30 L 29 29 L 29 28 L 28 27 L 27 27 L 26 26 Z M 21 29 L 25 29 L 27 31 L 27 35 L 28 36 L 28 38 L 27 39 L 27 42 L 24 45 L 22 45 L 19 42 L 19 31 Z M 14 13 L 13 14 L 12 14 L 11 15 L 10 15 L 5 20 L 5 21 L 4 22 L 4 23 L 3 24 L 3 25 L 2 26 L 2 29 L 1 30 L 1 44 L 2 45 L 2 47 L 3 48 L 3 49 L 4 50 L 4 51 L 5 52 L 5 53 L 11 59 L 12 59 L 13 60 L 189 60 L 190 59 L 191 59 L 197 53 L 197 52 L 198 51 L 198 50 L 199 49 L 199 48 L 200 47 L 200 44 L 201 43 L 201 30 L 200 29 L 200 27 L 199 26 L 199 24 L 198 23 L 198 22 L 197 21 L 197 20 L 192 15 L 191 15 L 190 14 L 189 14 L 188 13 Z M 15 17 L 16 16 L 185 16 L 186 17 L 188 17 L 189 18 L 190 18 L 194 22 L 194 23 L 196 25 L 196 27 L 197 28 L 197 31 L 198 32 L 198 41 L 197 42 L 197 45 L 196 46 L 196 48 L 195 49 L 195 50 L 189 56 L 188 56 L 187 57 L 15 57 L 14 56 L 13 56 L 7 50 L 7 49 L 6 48 L 6 47 L 5 46 L 5 43 L 4 42 L 4 31 L 5 30 L 5 28 L 6 27 L 6 25 L 7 24 L 7 23 L 13 17 Z M 208 7 L 208 8 Z M 208 4 L 208 5 Z M 201 4 L 201 9 Z"/>
    <path id="alpha-240" fill-opacity="0.941176" fill-rule="evenodd" d="M 195 56 L 194 57 Z M 6 55 L 9 58 Z M 36 46 L 37 47 Z M 18 27 L 17 28 Z M 203 6 L 204 6 Z M 205 1 L 207 3 Z M 201 1 L 199 3 Z"/>
    <path id="alpha-224" fill-opacity="0.878431" fill-rule="evenodd" d="M 144 37 L 143 38 Z"/>
    <path id="alpha-208" fill-opacity="0.815686" fill-rule="evenodd" d="M 47 27 L 48 28 Z M 194 16 L 195 17 Z M 207 9 L 206 10 L 206 11 L 207 10 Z M 198 9 L 200 11 L 200 10 L 199 9 Z M 203 7 L 204 7 Z"/>
    <path id="alpha-192" fill-opacity="0.752941" fill-rule="evenodd" d="M 16 61 L 186 61 Z M 109 44 L 114 44 Z M 180 40 L 182 40 Z M 122 40 L 122 43 L 123 44 L 128 44 L 129 45 L 129 48 L 129 45 L 128 44 L 123 44 L 122 43 Z M 57 40 L 57 43 L 58 44 L 63 44 L 58 44 L 57 43 Z M 33 36 L 33 37 Z M 27 36 L 27 37 Z M 129 35 L 129 38 Z M 0 35 L 0 39 Z M 45 33 L 45 34 Z M 122 31 L 122 33 Z M 57 31 L 57 33 Z M 129 26 L 129 29 Z M 103 26 L 103 48 Z M 100 26 L 100 48 Z M 96 26 L 96 36 Z M 179 25 L 181 25 Z M 41 25 L 42 25 Z M 22 25 L 24 25 Z M 17 17 L 185 17 Z M 203 11 L 203 12 Z"/>
    <path id="alpha-160" fill-opacity="0.627451" fill-rule="evenodd" d="M 17 46 L 18 47 Z M 191 20 L 192 21 Z M 205 4 L 204 5 Z"/>
    <path id="alpha-128" fill-opacity="0.501961" fill-rule="evenodd" d="M 17 56 L 185 56 Z M 64 45 L 64 48 Z M 73 44 L 76 44 Z M 136 41 L 136 48 Z M 108 40 L 108 43 Z M 50 40 L 50 41 Z M 0 40 L 0 41 Z M 33 39 L 33 40 Z M 5 38 L 5 40 Z M 38 36 L 38 38 Z M 32 36 L 32 37 Z M 197 35 L 197 38 Z M 123 34 L 128 34 Z M 58 34 L 63 34 L 64 35 L 64 38 L 64 35 L 63 34 Z M 5 34 L 5 35 Z M 202 33 L 202 40 Z M 50 33 L 50 34 Z M 0 32 L 0 33 Z M 137 30 L 136 31 L 136 35 L 136 31 L 137 30 L 138 30 Z M 123 30 L 128 30 Z M 109 30 L 108 31 L 108 33 L 109 34 L 114 34 L 109 34 L 108 33 L 108 31 L 109 30 L 114 30 Z M 148 26 L 148 48 Z M 131 26 L 131 48 Z M 117 26 L 117 48 Z M 85 26 L 85 48 Z M 64 26 L 64 29 L 63 30 L 58 30 L 63 30 L 64 29 Z M 52 26 L 52 48 Z M 16 12 L 186 12 Z M 205 8 L 204 9 Z M 197 5 L 197 7 Z M 201 3 L 202 4 L 203 4 L 203 3 Z"/>
    <path id="alpha-96" fill-opacity="0.376471" fill-rule="evenodd" d="M 48 46 L 47 47 Z M 140 34 L 139 35 Z"/>
    <path id="alpha-80" fill-opacity="0.313725" fill-rule="evenodd" d="M 201 2 L 200 3 Z"/>
    <path id="alpha-64" fill-opacity="0.25098" fill-rule="evenodd" d="M 179 49 L 181 49 Z M 41 49 L 42 49 Z M 22 49 L 24 49 Z M 115 45 L 115 48 Z M 123 39 L 128 39 Z M 74 39 L 75 39 Z M 58 39 L 63 39 Z M 46 39 L 49 39 Z M 32 39 L 32 40 L 33 41 L 32 40 Z M 159 38 L 159 48 Z M 179 36 L 179 39 Z M 115 35 L 115 38 L 114 39 L 109 39 L 114 39 L 115 38 Z M 14 35 L 14 39 Z M 43 30 L 44 31 Z M 166 25 L 165 26 L 165 33 L 164 34 L 165 35 L 165 26 L 166 25 L 169 25 L 170 26 L 170 48 L 170 40 L 171 39 L 171 34 L 170 33 L 170 26 L 169 25 Z M 149 25 L 152 25 L 153 26 L 153 48 L 154 48 L 154 26 L 155 25 L 158 25 L 155 25 L 154 26 L 153 26 L 152 25 Z M 132 25 L 139 25 Z M 118 25 L 128 25 Z M 104 25 L 114 25 L 115 26 L 115 29 L 115 26 L 114 25 Z M 97 25 L 99 25 Z M 86 25 L 89 25 Z M 73 25 L 76 25 Z M 53 25 L 63 25 Z M 199 4 L 200 5 L 200 8 L 200 4 Z"/>
    <path id="alpha-48" fill-opacity="0.188235" fill-rule="evenodd" d="M 196 56 L 194 58 Z M 6 56 L 8 58 Z M 187 46 L 186 47 Z M 35 46 L 36 47 Z M 18 26 L 17 27 Z M 206 9 L 205 10 Z"/>
    <path id="alpha-16" fill-opacity="0.0627451" fill-rule="evenodd" d="M 30 46 L 29 47 Z M 47 26 L 48 27 Z M 153 25 L 154 25 Z M 6 17 L 5 18 Z M 194 15 L 196 17 Z M 208 10 L 207 11 Z M 198 10 L 199 11 Z M 199 1 L 198 2 Z"/>
  </g>
</svg>