<?xml version="1.0" encoding="UTF-8"?>
<svg xmlns="http://www.w3.org/2000/svg" width="435" height="127" viewBox="0 0 435 127" version="1.1" shape-rendering="geometricPrecision">
  <title>OCEANEERING logo vetorizado</title>
  <desc>Vetorização em contornos SVG a partir do arquivo OII-blue.png, sem imagem raster incorporada.</desc>
  <g id="OCEANEERING-logo" fill="#023c5b" stroke="none">
    <path id="alpha-255" fill-rule="evenodd" d="M 322 53 L 322 99 L 330 99 L 330 74 L 331 73 L 332 74 L 332 75 L 333 76 L 333 77 L 334 78 L 334 79 L 336 81 L 336 82 L 337 83 L 337 84 L 338 85 L 338 86 L 339 87 L 339 88 L 340 89 L 340 90 L 341 91 L 341 92 L 342 93 L 342 94 L 344 96 L 344 97 L 345 98 L 345 99 L 352 99 L 352 53 L 345 53 L 345 76 L 344 77 L 342 75 L 342 74 L 341 73 L 341 72 L 340 71 L 340 70 L 339 69 L 339 68 L 337 66 L 337 65 L 336 64 L 336 63 L 335 62 L 335 61 L 334 60 L 334 59 L 333 58 L 333 57 L 332 56 L 332 55 L 331 54 L 331 53 Z M 309 53 L 309 99 L 317 99 L 317 53 Z M 274 53 L 274 99 L 282 99 L 282 82 L 283 81 L 286 84 L 286 85 L 287 86 L 287 87 L 288 88 L 288 89 L 290 91 L 290 92 L 291 93 L 291 94 L 292 95 L 292 96 L 294 98 L 294 99 L 304 99 L 302 97 L 302 96 L 301 95 L 301 94 L 299 92 L 299 91 L 298 90 L 298 89 L 296 87 L 296 86 L 294 84 L 294 83 L 293 82 L 293 80 L 294 79 L 296 79 L 298 77 L 299 77 L 299 76 L 301 74 L 301 72 L 302 71 L 302 63 L 301 62 L 301 61 L 300 60 L 300 59 L 298 57 L 298 56 L 297 56 L 295 54 L 294 54 L 293 53 Z M 282 61 L 283 60 L 287 60 L 288 61 L 290 61 L 293 64 L 293 70 L 292 71 L 292 72 L 291 73 L 289 73 L 288 74 L 283 74 L 282 73 Z M 245 53 L 245 99 L 268 99 L 268 91 L 255 91 L 254 90 L 254 80 L 255 79 L 268 79 L 268 71 L 255 71 L 254 70 L 254 62 L 255 61 L 268 61 L 268 53 Z M 215 53 L 215 99 L 238 99 L 238 91 L 225 91 L 224 90 L 224 80 L 225 79 L 238 79 L 238 71 L 225 71 L 224 70 L 224 62 L 225 61 L 238 61 L 238 53 Z M 178 53 L 178 99 L 185 99 L 185 74 L 186 73 L 188 75 L 188 76 L 189 77 L 189 78 L 190 79 L 190 80 L 192 82 L 192 83 L 193 84 L 193 85 L 194 86 L 194 87 L 195 88 L 195 89 L 196 90 L 196 91 L 197 92 L 197 93 L 198 94 L 198 95 L 199 96 L 199 97 L 201 99 L 208 99 L 208 53 L 200 53 L 200 76 L 199 77 L 198 76 L 198 75 L 197 74 L 197 73 L 196 72 L 196 71 L 195 70 L 195 69 L 193 67 L 193 66 L 192 65 L 192 64 L 191 63 L 191 62 L 190 61 L 190 60 L 189 59 L 189 58 L 188 57 L 188 56 L 187 55 L 187 54 L 186 53 Z M 150 53 L 150 55 L 149 56 L 149 59 L 148 60 L 148 62 L 147 63 L 147 65 L 146 66 L 146 69 L 145 70 L 145 72 L 144 73 L 144 75 L 143 76 L 143 79 L 142 80 L 142 82 L 141 83 L 141 86 L 140 87 L 140 89 L 139 90 L 139 92 L 138 93 L 138 96 L 137 97 L 137 99 L 146 99 L 146 97 L 147 96 L 147 93 L 148 92 L 148 91 L 149 90 L 161 90 L 162 91 L 162 93 L 163 94 L 163 96 L 164 97 L 164 99 L 173 99 L 173 97 L 172 96 L 172 94 L 171 93 L 171 90 L 170 89 L 170 87 L 169 86 L 169 84 L 168 83 L 168 81 L 167 80 L 167 78 L 166 77 L 166 74 L 165 73 L 165 71 L 164 70 L 164 68 L 163 67 L 163 65 L 162 64 L 162 61 L 161 60 L 161 58 L 160 57 L 160 55 L 159 54 L 159 53 Z M 154 67 L 155 66 L 156 67 L 156 69 L 157 70 L 157 74 L 158 75 L 158 79 L 159 80 L 159 81 L 158 82 L 152 82 L 151 81 L 151 78 L 152 77 L 152 73 L 153 72 L 153 69 L 154 68 Z M 109 53 L 109 99 L 132 99 L 132 91 L 119 91 L 118 90 L 118 80 L 119 79 L 132 79 L 132 71 L 119 71 L 118 70 L 118 62 L 119 61 L 132 61 L 132 53 Z M 370 52 L 369 53 L 367 53 L 365 55 L 364 55 L 362 57 L 362 58 L 361 59 L 361 60 L 360 61 L 360 62 L 359 63 L 359 65 L 358 66 L 358 71 L 357 72 L 357 79 L 358 80 L 358 85 L 359 86 L 359 88 L 360 89 L 360 91 L 362 93 L 362 94 L 365 97 L 366 97 L 367 98 L 368 98 L 369 99 L 373 99 L 374 100 L 375 100 L 376 99 L 381 99 L 382 98 L 383 98 L 384 97 L 385 97 L 389 93 L 389 92 L 390 91 L 390 90 L 391 89 L 391 85 L 392 84 L 392 74 L 374 74 L 374 82 L 382 82 L 383 83 L 383 85 L 382 86 L 382 88 L 379 91 L 378 91 L 377 92 L 373 92 L 372 91 L 371 91 L 369 89 L 369 88 L 368 87 L 368 86 L 367 85 L 367 81 L 366 80 L 366 71 L 367 70 L 367 66 L 368 65 L 368 64 L 372 60 L 373 60 L 374 59 L 375 59 L 376 60 L 378 60 L 382 64 L 382 66 L 383 67 L 383 68 L 392 68 L 391 67 L 391 63 L 390 62 L 390 61 L 389 60 L 389 59 L 384 54 L 383 54 L 382 53 L 380 53 L 379 52 Z M 81 52 L 80 53 L 79 53 L 78 54 L 77 54 L 74 57 L 74 58 L 72 60 L 72 61 L 71 62 L 71 64 L 70 65 L 70 69 L 69 70 L 69 81 L 70 82 L 70 86 L 71 87 L 71 89 L 72 90 L 72 91 L 73 92 L 73 93 L 77 97 L 78 97 L 79 98 L 80 98 L 81 99 L 84 99 L 85 100 L 87 100 L 88 99 L 92 99 L 93 98 L 94 98 L 95 97 L 96 97 L 100 93 L 100 92 L 101 91 L 101 90 L 102 89 L 102 86 L 103 85 L 103 82 L 94 82 L 94 86 L 93 87 L 93 88 L 89 92 L 85 92 L 84 91 L 83 91 L 80 88 L 80 87 L 79 86 L 79 83 L 78 82 L 78 69 L 79 68 L 79 66 L 80 65 L 80 64 L 81 63 L 81 62 L 82 61 L 83 61 L 84 60 L 85 60 L 86 59 L 87 59 L 88 60 L 90 60 L 93 63 L 93 64 L 94 65 L 94 70 L 103 70 L 103 66 L 102 65 L 102 62 L 101 61 L 101 60 L 99 58 L 99 57 L 97 55 L 96 55 L 94 53 L 92 53 L 91 52 Z M 43 52 L 42 53 L 41 53 L 40 54 L 39 54 L 34 59 L 34 60 L 33 61 L 33 62 L 32 63 L 32 65 L 31 66 L 31 72 L 30 73 L 30 78 L 31 79 L 31 85 L 32 86 L 32 88 L 33 89 L 33 90 L 34 91 L 34 92 L 35 93 L 35 94 L 38 97 L 39 97 L 40 98 L 41 98 L 42 99 L 46 99 L 47 100 L 49 100 L 50 99 L 53 99 L 54 98 L 56 98 L 62 92 L 62 91 L 63 90 L 63 88 L 64 87 L 64 84 L 65 83 L 65 68 L 64 67 L 64 64 L 63 63 L 63 62 L 62 61 L 62 60 L 61 59 L 61 58 L 57 54 L 56 54 L 55 53 L 54 53 L 53 52 Z M 46 60 L 47 59 L 48 59 L 49 60 L 51 60 L 55 64 L 55 66 L 56 67 L 56 84 L 55 85 L 55 87 L 54 88 L 54 89 L 52 91 L 51 91 L 50 92 L 46 92 L 45 91 L 44 91 L 41 88 L 41 87 L 40 86 L 40 81 L 39 80 L 39 71 L 40 70 L 40 66 L 41 65 L 41 63 L 44 60 Z M 31 25 L 30 26 L 27 26 L 26 27 L 25 27 L 24 28 L 23 28 L 22 29 L 21 29 L 18 32 L 17 32 L 13 36 L 13 37 L 10 40 L 10 41 L 9 42 L 9 43 L 7 45 L 7 46 L 6 47 L 6 48 L 5 49 L 5 51 L 4 52 L 4 54 L 3 55 L 3 57 L 2 58 L 2 62 L 1 63 L 1 69 L 0 70 L 0 81 L 1 82 L 1 88 L 2 89 L 2 92 L 3 93 L 3 96 L 4 97 L 4 99 L 5 100 L 5 101 L 6 102 L 6 103 L 7 104 L 7 105 L 8 106 L 8 107 L 9 108 L 9 109 L 11 111 L 11 112 L 20 121 L 21 121 L 23 123 L 24 123 L 25 124 L 27 124 L 28 125 L 31 125 L 32 126 L 388 126 L 389 125 L 392 125 L 393 124 L 395 124 L 396 123 L 397 123 L 399 121 L 400 121 L 409 112 L 409 111 L 411 109 L 411 108 L 412 107 L 412 106 L 413 105 L 413 104 L 414 103 L 414 102 L 415 101 L 415 100 L 416 99 L 416 97 L 417 96 L 417 94 L 418 93 L 418 89 L 419 88 L 419 82 L 420 81 L 420 70 L 419 69 L 419 63 L 418 62 L 418 58 L 417 57 L 417 55 L 416 54 L 416 52 L 415 51 L 415 49 L 414 48 L 414 47 L 413 46 L 413 45 L 412 44 L 412 43 L 410 41 L 410 40 L 407 37 L 407 36 L 403 32 L 402 32 L 399 29 L 398 29 L 397 28 L 396 28 L 395 27 L 394 27 L 393 26 L 390 26 L 389 25 Z M 31 35 L 32 34 L 388 34 L 389 35 L 391 35 L 392 36 L 393 36 L 394 37 L 395 37 L 403 45 L 403 46 L 404 47 L 404 48 L 406 50 L 406 51 L 407 52 L 407 54 L 408 55 L 408 57 L 409 58 L 409 60 L 410 61 L 410 66 L 411 67 L 411 84 L 410 85 L 410 89 L 409 90 L 409 93 L 408 94 L 408 96 L 407 97 L 407 98 L 406 99 L 406 100 L 405 101 L 405 102 L 404 103 L 404 104 L 402 106 L 402 107 L 396 113 L 395 113 L 394 114 L 393 114 L 392 115 L 391 115 L 390 116 L 387 116 L 386 117 L 34 117 L 33 116 L 30 116 L 29 115 L 28 115 L 27 114 L 26 114 L 25 113 L 24 113 L 18 107 L 18 106 L 16 104 L 16 103 L 15 102 L 15 101 L 14 100 L 14 99 L 13 98 L 13 97 L 12 96 L 12 94 L 11 93 L 11 90 L 10 89 L 10 85 L 9 84 L 9 67 L 10 66 L 10 61 L 11 60 L 11 58 L 12 57 L 12 55 L 13 54 L 13 53 L 14 52 L 14 50 L 16 48 L 16 47 L 17 46 L 17 45 L 25 37 L 26 37 L 27 36 L 28 36 L 29 35 Z M 418 6 L 418 18 L 419 18 L 419 13 L 420 12 L 421 12 L 422 13 L 423 13 L 424 14 L 424 15 L 426 17 L 426 18 L 427 18 L 426 17 L 426 16 L 423 13 L 425 11 L 426 11 L 426 7 L 425 7 L 424 6 Z M 419 7 L 420 6 L 423 6 L 424 7 L 425 7 L 426 8 L 426 10 L 424 12 L 420 12 L 419 11 Z M 421 0 L 420 1 L 418 1 L 417 2 L 416 2 L 413 5 L 413 6 L 412 7 L 412 8 L 411 9 L 411 15 L 412 16 L 412 17 L 413 18 L 413 19 L 415 21 L 416 21 L 417 22 L 418 22 L 419 23 L 426 23 L 427 22 L 428 22 L 429 21 L 430 21 L 432 19 L 432 18 L 433 17 L 433 16 L 434 15 L 434 9 L 433 8 L 433 7 L 432 6 L 432 5 L 429 2 L 428 2 L 427 1 L 425 1 L 424 0 Z M 418 2 L 419 1 L 426 1 L 427 2 L 428 2 L 432 6 L 432 7 L 433 8 L 433 11 L 434 12 L 433 13 L 433 16 L 432 17 L 432 18 L 429 21 L 428 21 L 427 22 L 426 22 L 425 23 L 420 23 L 419 22 L 418 22 L 417 21 L 416 21 L 413 18 L 413 17 L 412 16 L 412 14 L 411 13 L 411 11 L 412 10 L 412 8 L 413 7 L 413 6 L 417 2 Z"/>
    <path id="alpha-240" fill-opacity="0.941176" fill-rule="evenodd" d="M 407 115 L 403 119 Z M 13 115 L 17 119 Z M 60 95 L 59 96 Z M 53 89 L 52 90 Z M 37 55 L 35 57 Z M 425 12 L 424 13 Z"/>
    <path id="alpha-224" fill-opacity="0.878431" fill-rule="evenodd" d="M 343 75 L 344 76 Z"/>
    <path id="alpha-208" fill-opacity="0.815686" fill-rule="evenodd" d="M 400 108 L 397 111 Z M 20 108 L 23 111 Z M 74 95 L 75 96 Z M 82 89 L 83 90 Z M 415 19 L 416 20 Z M 414 3 L 413 4 Z"/>
    <path id="alpha-192" fill-opacity="0.752941" fill-rule="evenodd" d="M 35 116 L 385 116 Z M 377 100 L 378 100 Z M 83 100 L 84 100 Z M 50 100 L 51 100 Z M 133 91 L 133 99 Z M 0 82 L 0 83 Z M 94 81 L 103 81 Z M 30 80 L 30 81 Z M 367 72 L 367 79 Z M 40 72 L 40 80 Z M 133 71 L 133 79 Z M 357 70 L 357 71 Z M 30 70 L 30 71 Z M 420 67 L 420 68 Z M 10 67 L 10 68 Z M 284 61 L 287 61 Z M 345 52 L 352 52 Z M 322 52 L 330 52 Z M 309 52 L 317 52 Z M 274 52 L 273 53 L 273 99 L 273 53 L 274 52 L 289 52 Z M 245 52 L 244 53 L 244 99 L 244 53 L 245 52 L 268 52 Z M 215 52 L 214 53 L 214 99 L 214 53 L 215 52 L 238 52 Z M 200 52 L 208 52 Z M 178 52 L 186 52 Z M 151 52 L 159 52 Z M 109 52 L 132 52 L 133 53 L 133 61 L 133 53 L 132 52 Z M 374 51 L 375 51 Z M 422 24 L 423 24 Z M 420 7 L 422 7 Z"/>
    <path id="alpha-160" fill-opacity="0.627451" fill-rule="evenodd" d="M 388 95 L 387 96 Z M 362 95 L 363 96 Z M 99 95 L 98 96 Z M 75 55 L 74 56 Z M 397 40 L 399 42 Z M 23 40 L 21 42 Z"/>
    <path id="alpha-128" fill-opacity="0.501961" fill-rule="evenodd" d="M 239 91 L 239 99 Z M 283 83 L 283 99 L 283 84 L 284 83 Z M 410 81 L 410 82 Z M 79 79 L 79 80 Z M 186 75 L 186 99 Z M 66 72 L 66 79 Z M 239 71 L 239 79 Z M 79 71 L 79 73 Z M 410 69 L 410 70 Z M 10 69 L 10 70 Z M 303 65 L 303 69 Z M 283 62 L 283 72 L 284 73 L 286 73 L 284 73 L 283 72 Z M 353 53 L 353 99 Z M 344 53 L 344 75 Z M 308 53 L 308 99 Z M 239 53 L 239 61 Z M 177 53 L 177 99 Z M 108 53 L 108 99 Z M 376 51 L 377 51 Z M 372 51 L 373 51 Z M 88 51 L 89 51 Z M 45 51 L 46 51 Z M 35 35 L 385 35 Z M 34 24 L 386 24 Z M 422 22 L 423 22 Z M 420 11 L 422 11 Z M 410 11 L 410 12 Z M 417 6 L 417 18 Z"/>
    <path id="alpha-96" fill-opacity="0.376471" fill-rule="evenodd" d="M 104 81 L 104 82 Z M 363 55 L 362 56 Z M 404 32 L 407 35 Z M 16 32 L 13 35 Z M 432 20 L 431 21 Z"/>
    <path id="alpha-64" fill-opacity="0.25098" fill-rule="evenodd" d="M 345 100 L 352 100 Z M 322 100 L 330 100 Z M 294 100 L 304 100 Z M 274 100 L 282 100 Z M 215 100 L 238 100 Z M 201 100 L 208 100 Z M 178 100 L 185 100 Z M 164 100 L 174 100 Z M 109 100 L 132 100 Z M 147 99 L 146 100 L 136 100 L 146 100 Z M 269 91 L 269 99 L 268 100 L 245 100 L 268 100 L 269 99 Z M 150 91 L 160 91 Z M 104 83 L 104 84 Z M 93 82 L 93 83 Z M 153 81 L 157 81 Z M 119 80 L 119 90 Z M 55 78 L 55 80 Z M 421 75 L 421 76 Z M 79 74 L 79 77 Z M 374 73 L 373 74 L 373 82 L 374 83 L 381 83 L 374 83 L 373 82 L 373 74 L 374 73 L 392 73 Z M 68 73 L 68 78 Z M 410 72 L 410 79 Z M 10 72 L 10 79 Z M 55 71 L 55 73 Z M 255 70 L 268 70 L 269 71 L 269 79 L 269 71 L 268 70 Z M 225 70 L 238 70 Z M 383 69 L 392 69 Z M 93 69 L 93 70 L 94 71 L 103 71 L 94 71 L 93 70 Z M 104 67 L 104 68 Z M 225 62 L 238 62 Z M 120 62 L 119 63 L 119 69 L 120 70 L 132 70 L 120 70 L 119 69 L 119 63 L 120 62 L 132 62 Z M 318 53 L 318 99 L 317 100 L 309 100 L 317 100 L 318 99 Z M 269 53 L 269 61 L 268 62 L 255 62 L 268 62 L 269 61 Z M 426 19 L 427 19 L 428 20 L 427 19 Z M 418 19 L 419 19 Z M 418 5 L 423 5 Z M 421 2 L 424 2 Z"/>
    <path id="alpha-48" fill-opacity="0.188235" fill-rule="evenodd" d="M 407 116 L 404 119 Z M 13 116 L 16 119 Z M 37 54 L 35 56 Z"/>
    <path id="alpha-32" fill-opacity="0.12549" fill-rule="evenodd" d="M 387 55 L 388 56 Z"/>
    <path id="alpha-16" fill-opacity="0.0627451" fill-rule="evenodd" d="M 399 108 L 397 110 Z M 21 108 L 23 110 Z M 73 95 L 75 97 Z M 82 88 L 83 89 Z M 430 18 L 429 19 Z M 415 18 L 416 19 Z M 431 2 L 432 3 Z M 414 2 L 413 3 Z"/>
  </g>
</svg>