<?xml version="1.0" encoding="UTF-8"?>
<svg xmlns="http://www.w3.org/2000/svg" width="1917" height="679" viewBox="0 0 1917 679" version="1.1" shape-rendering="geometricPrecision">
  <title>OCEANEERING logo branco vetorizado com fundo transparente</title>
  <desc>Vetorização em contornos SVG do logotipo branco, com fundo transparente, sem imagem raster incorporada.</desc>
  <g id="OCEANEERING-logo-white" fill="#ffffff" stroke="none">
    <path id="white-alpha-255" fill-rule="evenodd" d="M 1420 309 L 1420 517 L 1457 517 L 1457 401 L 1458 400 L 1461 403 L 1461 404 L 1462 405 L 1462 406 L 1463 407 L 1463 408 L 1464 409 L 1464 410 L 1465 411 L 1465 412 L 1467 414 L 1467 416 L 1468 417 L 1468 418 L 1470 420 L 1470 421 L 1471 422 L 1471 423 L 1472 424 L 1472 425 L 1473 426 L 1473 427 L 1475 429 L 1475 430 L 1476 431 L 1476 432 L 1477 433 L 1477 435 L 1479 437 L 1479 438 L 1480 439 L 1480 440 L 1481 441 L 1481 442 L 1482 443 L 1482 444 L 1484 446 L 1484 447 L 1485 448 L 1485 450 L 1487 452 L 1487 453 L 1488 454 L 1488 455 L 1489 456 L 1489 457 L 1490 458 L 1490 459 L 1491 460 L 1491 461 L 1493 463 L 1493 464 L 1494 465 L 1494 466 L 1495 467 L 1495 468 L 1496 469 L 1496 470 L 1497 471 L 1497 472 L 1498 473 L 1498 474 L 1499 475 L 1499 476 L 1501 478 L 1501 479 L 1502 480 L 1502 481 L 1503 482 L 1503 483 L 1504 484 L 1504 485 L 1505 486 L 1505 487 L 1506 488 L 1506 489 L 1507 490 L 1507 491 L 1508 492 L 1508 493 L 1510 495 L 1510 496 L 1511 497 L 1511 498 L 1512 499 L 1512 500 L 1513 501 L 1513 502 L 1514 503 L 1514 504 L 1515 505 L 1515 506 L 1516 507 L 1516 508 L 1517 509 L 1517 510 L 1519 512 L 1519 513 L 1520 514 L 1520 515 L 1521 516 L 1521 517 L 1557 517 L 1557 309 L 1520 309 L 1520 416 L 1519 417 L 1518 417 L 1516 415 L 1516 414 L 1515 413 L 1515 412 L 1514 411 L 1514 410 L 1513 409 L 1513 408 L 1511 406 L 1511 404 L 1510 403 L 1510 402 L 1508 400 L 1508 399 L 1507 398 L 1507 397 L 1506 396 L 1506 395 L 1505 394 L 1505 393 L 1504 392 L 1504 391 L 1502 389 L 1502 388 L 1501 387 L 1501 385 L 1499 383 L 1499 382 L 1498 381 L 1498 380 L 1497 379 L 1497 378 L 1496 377 L 1496 376 L 1495 375 L 1495 374 L 1493 372 L 1493 370 L 1491 368 L 1491 367 L 1490 366 L 1490 365 L 1489 364 L 1489 363 L 1488 362 L 1488 361 L 1487 360 L 1487 359 L 1485 357 L 1485 355 L 1484 354 L 1484 353 L 1482 351 L 1482 350 L 1481 349 L 1481 348 L 1480 347 L 1480 346 L 1479 345 L 1479 344 L 1478 343 L 1478 342 L 1476 340 L 1476 339 L 1475 338 L 1475 336 L 1473 334 L 1473 333 L 1472 332 L 1472 331 L 1471 330 L 1471 329 L 1470 328 L 1470 327 L 1469 326 L 1469 325 L 1467 323 L 1467 322 L 1466 321 L 1466 319 L 1464 317 L 1464 316 L 1463 315 L 1463 314 L 1462 313 L 1462 312 L 1461 311 L 1461 310 L 1460 309 Z M 1361 309 L 1361 517 L 1401 517 L 1400 516 L 1400 310 L 1401 309 Z M 1206 309 L 1206 517 L 1248 517 L 1248 436 L 1249 435 L 1250 435 L 1251 436 L 1251 437 L 1252 438 L 1252 439 L 1253 440 L 1253 441 L 1255 443 L 1255 444 L 1256 445 L 1256 446 L 1257 447 L 1257 448 L 1259 450 L 1259 451 L 1260 452 L 1260 453 L 1261 454 L 1261 455 L 1262 456 L 1262 457 L 1264 459 L 1264 460 L 1265 461 L 1265 462 L 1266 463 L 1266 464 L 1268 466 L 1268 467 L 1269 468 L 1269 469 L 1270 470 L 1270 471 L 1272 473 L 1272 474 L 1273 475 L 1273 476 L 1274 477 L 1274 478 L 1275 479 L 1275 480 L 1277 482 L 1277 483 L 1278 484 L 1278 485 L 1279 486 L 1279 487 L 1281 489 L 1281 490 L 1282 491 L 1282 492 L 1283 493 L 1283 494 L 1285 496 L 1285 497 L 1286 498 L 1286 499 L 1287 500 L 1287 501 L 1289 503 L 1289 504 L 1290 505 L 1290 506 L 1292 508 L 1292 510 L 1294 512 L 1294 513 L 1295 514 L 1295 515 L 1296 516 L 1296 517 L 1345 517 L 1343 515 L 1343 514 L 1341 512 L 1341 511 L 1340 510 L 1340 509 L 1339 508 L 1339 507 L 1336 504 L 1336 503 L 1335 502 L 1335 501 L 1334 500 L 1334 499 L 1332 497 L 1332 496 L 1330 494 L 1330 493 L 1328 491 L 1328 490 L 1327 489 L 1327 488 L 1326 487 L 1326 486 L 1323 483 L 1323 482 L 1322 481 L 1322 480 L 1320 478 L 1320 477 L 1319 476 L 1319 475 L 1317 473 L 1317 472 L 1315 470 L 1315 469 L 1314 468 L 1314 467 L 1312 465 L 1312 464 L 1310 462 L 1310 461 L 1309 460 L 1309 459 L 1307 457 L 1307 456 L 1305 454 L 1305 453 L 1304 452 L 1304 451 L 1302 449 L 1302 448 L 1300 446 L 1300 445 L 1299 444 L 1299 443 L 1297 441 L 1297 440 L 1296 439 L 1296 438 L 1294 436 L 1294 435 L 1293 434 L 1293 433 L 1294 432 L 1296 432 L 1297 431 L 1301 431 L 1302 430 L 1304 430 L 1305 429 L 1306 429 L 1307 428 L 1308 428 L 1309 427 L 1310 427 L 1311 426 L 1312 426 L 1315 423 L 1316 423 L 1323 416 L 1323 415 L 1326 412 L 1326 411 L 1327 410 L 1327 409 L 1328 408 L 1328 407 L 1330 405 L 1330 403 L 1331 402 L 1331 401 L 1332 400 L 1332 398 L 1333 397 L 1333 395 L 1334 394 L 1334 392 L 1335 391 L 1335 384 L 1336 383 L 1336 367 L 1335 366 L 1335 359 L 1334 358 L 1334 356 L 1333 355 L 1333 353 L 1332 352 L 1332 350 L 1331 349 L 1331 347 L 1330 346 L 1330 345 L 1329 344 L 1329 343 L 1328 342 L 1328 341 L 1327 340 L 1327 339 L 1326 338 L 1326 337 L 1324 335 L 1324 334 L 1322 332 L 1322 331 L 1313 322 L 1312 322 L 1308 318 L 1307 318 L 1306 317 L 1305 317 L 1304 316 L 1303 316 L 1301 314 L 1299 314 L 1298 313 L 1296 313 L 1295 312 L 1294 312 L 1293 311 L 1290 311 L 1289 310 L 1286 310 L 1285 309 Z M 1250 347 L 1269 347 L 1270 348 L 1274 348 L 1275 349 L 1277 349 L 1278 350 L 1279 350 L 1280 351 L 1281 351 L 1283 353 L 1284 353 L 1288 357 L 1288 358 L 1290 360 L 1290 361 L 1291 362 L 1291 363 L 1292 364 L 1292 368 L 1293 369 L 1293 380 L 1292 381 L 1292 385 L 1291 386 L 1291 387 L 1290 388 L 1290 389 L 1288 391 L 1288 392 L 1284 396 L 1283 396 L 1281 398 L 1280 398 L 1279 399 L 1278 399 L 1277 400 L 1275 400 L 1274 401 L 1249 401 L 1248 400 L 1248 349 Z M 1078 309 L 1078 517 L 1185 517 L 1185 479 L 1123 479 L 1122 478 L 1122 429 L 1124 427 L 1184 427 L 1185 428 L 1185 389 L 1123 389 L 1122 388 L 1122 350 L 1123 349 L 1185 349 L 1185 309 Z M 946 309 L 946 517 L 1053 517 L 1053 479 L 991 479 L 990 478 L 990 429 L 992 427 L 1052 427 L 1053 428 L 1053 389 L 991 389 L 990 388 L 990 350 L 991 349 L 1053 349 L 1053 309 Z M 783 309 L 783 517 L 820 517 L 820 401 L 821 400 L 823 402 L 823 403 L 824 404 L 824 405 L 825 406 L 825 407 L 826 408 L 826 409 L 827 410 L 827 411 L 828 412 L 828 413 L 830 415 L 830 416 L 831 417 L 831 418 L 832 419 L 832 420 L 833 421 L 833 422 L 835 424 L 835 425 L 836 426 L 836 428 L 838 430 L 838 431 L 839 432 L 839 433 L 840 434 L 840 435 L 841 436 L 841 437 L 842 438 L 842 439 L 843 440 L 843 441 L 845 443 L 845 444 L 846 445 L 846 446 L 847 447 L 847 448 L 848 449 L 848 450 L 849 451 L 849 452 L 850 453 L 850 454 L 851 455 L 851 456 L 853 458 L 853 459 L 854 460 L 854 462 L 856 464 L 856 465 L 857 466 L 857 467 L 858 468 L 858 469 L 859 470 L 859 471 L 860 472 L 860 473 L 862 475 L 862 476 L 863 477 L 863 478 L 864 479 L 864 480 L 865 481 L 865 482 L 866 483 L 866 484 L 867 485 L 867 486 L 868 487 L 868 488 L 870 490 L 870 491 L 871 492 L 871 493 L 872 494 L 872 495 L 873 496 L 873 497 L 874 498 L 874 499 L 875 500 L 875 501 L 876 502 L 876 503 L 877 504 L 877 505 L 879 507 L 879 508 L 880 509 L 880 510 L 881 511 L 881 512 L 882 513 L 882 514 L 883 515 L 883 516 L 884 517 L 919 517 L 919 309 L 882 309 L 882 416 L 881 417 L 880 417 L 879 416 L 879 414 L 877 412 L 877 411 L 876 410 L 876 409 L 875 408 L 875 407 L 874 406 L 874 405 L 873 404 L 873 403 L 871 401 L 871 399 L 870 398 L 870 397 L 868 395 L 868 394 L 867 393 L 867 392 L 866 391 L 866 390 L 865 389 L 865 388 L 864 387 L 864 386 L 862 384 L 862 382 L 860 380 L 860 379 L 859 378 L 859 377 L 858 376 L 858 375 L 857 374 L 857 373 L 856 372 L 856 371 L 855 370 L 855 369 L 853 367 L 853 366 L 852 365 L 852 364 L 851 363 L 851 362 L 850 361 L 850 360 L 849 359 L 849 358 L 848 357 L 848 356 L 847 355 L 847 354 L 846 353 L 846 352 L 844 350 L 844 348 L 842 346 L 842 345 L 841 344 L 841 343 L 840 342 L 840 341 L 839 340 L 839 339 L 838 338 L 838 337 L 837 336 L 837 335 L 836 334 L 836 333 L 834 331 L 834 330 L 833 329 L 833 328 L 832 327 L 832 326 L 831 325 L 831 324 L 830 323 L 830 322 L 828 320 L 828 319 L 827 318 L 827 317 L 826 316 L 826 315 L 825 314 L 825 313 L 824 312 L 824 311 L 823 310 L 823 309 Z M 662 309 L 662 312 L 661 313 L 661 316 L 660 317 L 660 319 L 659 320 L 659 322 L 658 323 L 658 325 L 657 326 L 657 329 L 656 330 L 656 332 L 655 333 L 655 336 L 654 337 L 654 339 L 653 340 L 653 342 L 652 343 L 652 346 L 651 347 L 651 349 L 650 350 L 650 352 L 649 353 L 649 355 L 648 356 L 648 360 L 647 361 L 647 363 L 646 364 L 646 366 L 645 367 L 645 369 L 644 370 L 644 373 L 643 374 L 643 376 L 642 377 L 642 380 L 641 381 L 641 382 L 640 383 L 640 386 L 639 387 L 639 390 L 638 391 L 638 393 L 637 394 L 637 396 L 636 397 L 636 399 L 635 400 L 635 403 L 634 404 L 634 407 L 633 408 L 633 410 L 632 411 L 632 413 L 631 414 L 631 416 L 630 417 L 630 420 L 629 421 L 629 423 L 628 424 L 628 426 L 627 427 L 627 429 L 626 430 L 626 434 L 625 435 L 625 437 L 624 438 L 624 440 L 623 441 L 623 443 L 622 444 L 622 447 L 621 448 L 621 451 L 620 452 L 620 454 L 619 455 L 619 457 L 618 458 L 618 460 L 617 461 L 617 464 L 616 465 L 616 467 L 615 468 L 615 470 L 614 471 L 614 473 L 613 474 L 613 478 L 612 479 L 612 481 L 611 482 L 611 484 L 610 485 L 610 487 L 609 488 L 609 490 L 608 491 L 608 494 L 607 495 L 607 498 L 606 499 L 606 500 L 605 501 L 605 504 L 604 505 L 604 508 L 603 509 L 603 511 L 602 512 L 602 514 L 601 515 L 601 517 L 646 517 L 647 516 L 647 513 L 648 512 L 648 509 L 649 508 L 649 506 L 650 505 L 650 503 L 651 502 L 651 498 L 652 497 L 652 495 L 653 494 L 653 491 L 654 490 L 654 488 L 655 487 L 655 484 L 656 483 L 656 480 L 657 479 L 657 478 L 658 477 L 711 477 L 712 478 L 712 480 L 713 481 L 713 483 L 714 484 L 714 487 L 715 488 L 715 490 L 716 491 L 716 493 L 717 494 L 717 497 L 718 498 L 718 501 L 719 502 L 719 504 L 720 505 L 720 507 L 721 508 L 721 510 L 722 511 L 722 514 L 723 515 L 723 517 L 769 517 L 768 516 L 768 514 L 767 513 L 767 511 L 766 510 L 766 508 L 765 507 L 765 504 L 764 503 L 764 501 L 763 500 L 763 498 L 762 497 L 762 495 L 761 494 L 761 491 L 760 490 L 760 488 L 759 487 L 759 485 L 758 484 L 758 482 L 757 481 L 757 479 L 756 478 L 756 475 L 755 474 L 755 472 L 754 471 L 754 469 L 753 468 L 753 466 L 752 465 L 752 462 L 751 461 L 751 459 L 750 458 L 750 456 L 749 455 L 749 453 L 748 452 L 748 449 L 747 448 L 747 445 L 746 444 L 746 443 L 745 442 L 745 440 L 744 439 L 744 437 L 743 436 L 743 432 L 742 431 L 742 429 L 741 428 L 741 426 L 740 425 L 740 424 L 739 423 L 739 420 L 738 419 L 738 417 L 737 416 L 737 413 L 736 412 L 736 411 L 735 410 L 735 407 L 734 406 L 734 403 L 733 402 L 733 400 L 732 399 L 732 398 L 731 397 L 731 394 L 730 393 L 730 390 L 729 389 L 729 387 L 728 386 L 728 384 L 727 383 L 727 381 L 726 380 L 726 377 L 725 376 L 725 374 L 724 373 L 724 371 L 723 370 L 723 368 L 722 367 L 722 365 L 721 364 L 721 361 L 720 360 L 720 358 L 719 357 L 719 355 L 718 354 L 718 352 L 717 351 L 717 348 L 716 347 L 716 345 L 715 344 L 715 342 L 714 341 L 714 339 L 713 338 L 713 336 L 712 335 L 712 332 L 711 331 L 711 329 L 710 328 L 710 326 L 709 325 L 709 323 L 708 322 L 708 319 L 707 318 L 707 316 L 706 315 L 706 313 L 705 312 L 705 310 L 704 309 Z M 684 368 L 686 370 L 686 373 L 687 374 L 687 379 L 688 380 L 688 384 L 689 385 L 689 388 L 690 389 L 690 392 L 691 393 L 691 397 L 692 398 L 692 403 L 693 404 L 693 407 L 694 408 L 694 412 L 695 413 L 695 416 L 696 417 L 696 422 L 697 423 L 697 427 L 698 428 L 698 431 L 699 432 L 699 435 L 700 436 L 700 437 L 699 438 L 670 438 L 669 437 L 669 433 L 670 432 L 670 428 L 671 427 L 671 424 L 672 423 L 672 419 L 673 418 L 673 413 L 674 412 L 674 409 L 675 408 L 675 404 L 676 403 L 676 400 L 677 399 L 677 394 L 678 393 L 678 389 L 679 388 L 679 385 L 680 384 L 680 381 L 681 380 L 681 376 L 682 375 L 682 370 Z M 480 309 L 480 516 L 479 517 L 587 517 L 587 479 L 525 479 L 524 478 L 524 429 L 526 427 L 586 427 L 587 428 L 587 389 L 525 389 L 524 388 L 524 350 L 525 349 L 587 349 L 587 309 Z M 1638 305 L 1637 306 L 1634 306 L 1633 307 L 1631 307 L 1630 308 L 1628 308 L 1627 309 L 1624 309 L 1623 310 L 1622 310 L 1621 311 L 1620 311 L 1619 312 L 1618 312 L 1617 313 L 1616 313 L 1615 314 L 1614 314 L 1612 316 L 1611 316 L 1609 318 L 1608 318 L 1598 328 L 1598 329 L 1594 333 L 1594 334 L 1592 336 L 1592 337 L 1591 338 L 1591 339 L 1590 340 L 1590 341 L 1588 343 L 1588 344 L 1587 345 L 1587 346 L 1586 347 L 1586 349 L 1585 350 L 1585 351 L 1584 352 L 1584 354 L 1583 355 L 1583 356 L 1582 357 L 1582 360 L 1581 361 L 1581 364 L 1580 365 L 1580 368 L 1579 369 L 1579 372 L 1578 373 L 1578 376 L 1577 377 L 1577 385 L 1576 386 L 1576 395 L 1575 396 L 1575 428 L 1576 429 L 1576 438 L 1577 439 L 1577 447 L 1578 448 L 1578 452 L 1579 453 L 1579 456 L 1580 457 L 1580 459 L 1581 460 L 1581 463 L 1582 464 L 1582 467 L 1583 468 L 1583 469 L 1584 470 L 1584 472 L 1585 473 L 1585 474 L 1586 475 L 1586 477 L 1587 478 L 1587 479 L 1588 480 L 1588 481 L 1589 482 L 1589 483 L 1590 484 L 1590 485 L 1592 487 L 1592 488 L 1594 490 L 1594 491 L 1596 493 L 1596 494 L 1608 506 L 1609 506 L 1612 509 L 1613 509 L 1614 510 L 1615 510 L 1617 512 L 1618 512 L 1619 513 L 1620 513 L 1621 514 L 1623 514 L 1624 515 L 1625 515 L 1626 516 L 1628 516 L 1629 517 L 1632 517 L 1633 518 L 1637 518 L 1638 519 L 1645 519 L 1646 520 L 1660 520 L 1661 519 L 1668 519 L 1669 518 L 1675 518 L 1676 517 L 1678 517 L 1679 516 L 1681 516 L 1682 515 L 1684 515 L 1685 514 L 1687 514 L 1688 513 L 1689 513 L 1690 512 L 1691 512 L 1692 511 L 1693 511 L 1694 510 L 1695 510 L 1696 509 L 1697 509 L 1699 507 L 1700 507 L 1703 504 L 1704 504 L 1715 493 L 1715 492 L 1717 490 L 1717 489 L 1719 487 L 1719 486 L 1721 484 L 1721 482 L 1723 480 L 1723 479 L 1724 478 L 1724 476 L 1725 475 L 1725 473 L 1726 472 L 1726 470 L 1727 469 L 1727 467 L 1728 466 L 1728 464 L 1729 463 L 1729 457 L 1730 456 L 1730 403 L 1649 403 L 1649 442 L 1686 442 L 1687 443 L 1687 449 L 1686 450 L 1686 455 L 1685 456 L 1685 458 L 1684 459 L 1684 461 L 1683 462 L 1683 463 L 1682 464 L 1682 465 L 1681 466 L 1681 467 L 1677 471 L 1677 472 L 1675 474 L 1674 474 L 1672 476 L 1671 476 L 1669 478 L 1668 478 L 1667 479 L 1665 479 L 1664 480 L 1661 480 L 1660 481 L 1648 481 L 1647 480 L 1644 480 L 1643 479 L 1642 479 L 1641 478 L 1640 478 L 1637 475 L 1636 475 L 1634 473 L 1634 472 L 1630 468 L 1630 467 L 1629 466 L 1629 465 L 1628 464 L 1628 463 L 1627 462 L 1627 461 L 1626 460 L 1626 459 L 1625 458 L 1625 456 L 1624 455 L 1624 453 L 1623 452 L 1623 449 L 1622 448 L 1622 446 L 1621 445 L 1621 441 L 1620 440 L 1620 431 L 1619 430 L 1619 394 L 1620 393 L 1620 385 L 1621 384 L 1621 380 L 1622 379 L 1622 376 L 1623 375 L 1623 373 L 1624 372 L 1624 369 L 1625 368 L 1625 366 L 1626 365 L 1626 364 L 1627 363 L 1627 362 L 1628 361 L 1628 360 L 1629 359 L 1629 358 L 1631 356 L 1631 355 L 1639 347 L 1640 347 L 1641 346 L 1642 346 L 1643 345 L 1644 345 L 1645 344 L 1647 344 L 1648 343 L 1659 343 L 1660 344 L 1663 344 L 1664 345 L 1665 345 L 1666 346 L 1667 346 L 1668 347 L 1669 347 L 1670 348 L 1671 348 L 1675 352 L 1676 352 L 1677 353 L 1677 354 L 1680 357 L 1680 358 L 1682 360 L 1682 362 L 1683 363 L 1683 364 L 1684 365 L 1684 366 L 1685 367 L 1685 370 L 1686 371 L 1686 376 L 1687 377 L 1687 380 L 1730 380 L 1730 374 L 1729 373 L 1729 366 L 1728 365 L 1728 362 L 1727 361 L 1727 359 L 1726 358 L 1726 356 L 1725 355 L 1725 352 L 1724 351 L 1724 350 L 1723 349 L 1723 348 L 1722 347 L 1722 346 L 1721 345 L 1721 344 L 1720 343 L 1720 342 L 1719 341 L 1719 340 L 1718 339 L 1718 338 L 1716 336 L 1716 335 L 1713 332 L 1713 331 L 1702 320 L 1701 320 L 1698 317 L 1697 317 L 1695 315 L 1694 315 L 1693 314 L 1692 314 L 1691 313 L 1690 313 L 1689 312 L 1688 312 L 1687 311 L 1686 311 L 1685 310 L 1683 310 L 1682 309 L 1680 309 L 1679 308 L 1676 308 L 1675 307 L 1673 307 L 1672 306 L 1668 306 L 1667 305 Z M 367 305 L 366 306 L 363 306 L 362 307 L 359 307 L 358 308 L 356 308 L 355 309 L 353 309 L 352 310 L 351 310 L 350 311 L 349 311 L 348 312 L 347 312 L 346 313 L 345 313 L 344 314 L 343 314 L 341 316 L 340 316 L 338 318 L 337 318 L 326 329 L 326 330 L 323 333 L 323 334 L 321 336 L 321 337 L 320 338 L 320 339 L 319 340 L 319 341 L 318 342 L 318 343 L 317 344 L 317 345 L 316 346 L 316 347 L 315 348 L 315 349 L 314 350 L 314 352 L 313 353 L 313 354 L 312 355 L 312 357 L 311 358 L 311 360 L 310 361 L 310 365 L 309 366 L 309 368 L 308 369 L 308 372 L 307 373 L 307 377 L 306 378 L 306 387 L 305 388 L 305 400 L 304 401 L 304 424 L 305 425 L 305 436 L 306 437 L 306 446 L 307 447 L 307 451 L 308 452 L 308 455 L 309 456 L 309 459 L 310 460 L 310 463 L 311 464 L 311 466 L 312 467 L 312 469 L 313 470 L 313 471 L 314 472 L 314 474 L 315 475 L 315 477 L 316 478 L 316 479 L 317 480 L 317 481 L 319 483 L 319 485 L 321 487 L 321 488 L 323 490 L 323 491 L 325 493 L 325 494 L 338 507 L 339 507 L 341 509 L 342 509 L 344 511 L 345 511 L 346 512 L 347 512 L 348 513 L 349 513 L 350 514 L 352 514 L 353 515 L 354 515 L 355 516 L 357 516 L 358 517 L 360 517 L 361 518 L 366 518 L 367 519 L 373 519 L 374 520 L 388 520 L 389 519 L 396 519 L 397 518 L 402 518 L 403 517 L 405 517 L 406 516 L 408 516 L 409 515 L 411 515 L 412 514 L 414 514 L 415 513 L 416 513 L 417 512 L 418 512 L 420 510 L 421 510 L 422 509 L 423 509 L 425 507 L 426 507 L 428 505 L 429 505 L 439 495 L 439 494 L 442 491 L 442 490 L 444 488 L 444 487 L 446 485 L 446 484 L 447 483 L 447 482 L 448 481 L 448 480 L 449 479 L 449 478 L 450 477 L 450 475 L 451 474 L 451 473 L 452 472 L 452 470 L 453 469 L 453 467 L 454 466 L 454 463 L 455 462 L 455 459 L 456 458 L 456 454 L 457 453 L 457 447 L 458 446 L 458 437 L 415 437 L 415 439 L 414 440 L 414 448 L 413 449 L 413 453 L 412 454 L 412 457 L 411 458 L 411 461 L 410 462 L 410 463 L 409 464 L 409 465 L 408 466 L 408 467 L 407 468 L 407 469 L 405 471 L 405 472 L 401 476 L 400 476 L 398 478 L 397 478 L 396 479 L 395 479 L 394 480 L 391 480 L 390 481 L 379 481 L 378 480 L 374 480 L 373 479 L 372 479 L 371 478 L 370 478 L 368 476 L 367 476 L 360 469 L 360 468 L 358 466 L 358 465 L 357 464 L 357 463 L 356 462 L 356 461 L 355 460 L 355 459 L 354 458 L 354 457 L 353 456 L 353 453 L 352 452 L 352 450 L 351 449 L 351 447 L 350 446 L 350 442 L 349 441 L 349 435 L 348 434 L 348 418 L 347 417 L 347 407 L 348 406 L 348 390 L 349 389 L 349 383 L 350 382 L 350 379 L 351 378 L 351 375 L 352 374 L 352 372 L 353 371 L 353 368 L 354 367 L 354 366 L 355 365 L 355 364 L 356 363 L 356 362 L 357 361 L 357 360 L 358 359 L 358 358 L 362 354 L 362 353 L 366 349 L 367 349 L 369 347 L 370 347 L 371 346 L 372 346 L 373 345 L 374 345 L 375 344 L 378 344 L 379 343 L 391 343 L 392 344 L 394 344 L 395 345 L 396 345 L 397 346 L 398 346 L 399 347 L 400 347 L 407 354 L 407 355 L 408 356 L 408 357 L 409 358 L 409 359 L 410 360 L 410 361 L 411 362 L 411 365 L 412 366 L 412 370 L 413 371 L 413 375 L 414 376 L 414 385 L 415 386 L 415 389 L 458 389 L 458 377 L 457 376 L 457 371 L 456 370 L 456 366 L 455 365 L 455 362 L 454 361 L 454 357 L 453 356 L 453 354 L 452 353 L 452 352 L 451 351 L 451 349 L 450 348 L 450 347 L 449 346 L 449 344 L 447 342 L 447 341 L 446 340 L 446 339 L 445 338 L 445 337 L 443 335 L 443 334 L 441 332 L 441 331 L 429 319 L 428 319 L 426 317 L 425 317 L 423 315 L 422 315 L 420 313 L 418 313 L 417 312 L 416 312 L 415 311 L 414 311 L 413 310 L 412 310 L 411 309 L 408 309 L 407 308 L 405 308 L 404 307 L 401 307 L 400 306 L 397 306 L 396 305 Z M 198 305 L 197 306 L 193 306 L 192 307 L 190 307 L 189 308 L 187 308 L 186 309 L 183 309 L 182 310 L 181 310 L 180 311 L 179 311 L 178 312 L 177 312 L 176 313 L 175 313 L 174 314 L 173 314 L 171 316 L 170 316 L 168 318 L 167 318 L 155 330 L 155 331 L 152 334 L 152 335 L 151 336 L 151 337 L 149 339 L 149 340 L 148 341 L 148 342 L 147 343 L 147 344 L 146 345 L 146 346 L 145 347 L 145 348 L 144 349 L 144 350 L 143 351 L 143 353 L 142 354 L 142 355 L 141 356 L 141 358 L 140 359 L 140 362 L 139 363 L 139 366 L 138 367 L 138 369 L 137 370 L 137 374 L 136 375 L 136 378 L 135 379 L 135 388 L 134 389 L 134 401 L 133 402 L 133 423 L 134 424 L 134 435 L 135 436 L 135 445 L 136 446 L 136 450 L 137 451 L 137 454 L 138 455 L 138 458 L 139 459 L 139 462 L 140 463 L 140 465 L 141 466 L 141 468 L 142 469 L 142 470 L 143 471 L 143 473 L 144 474 L 144 476 L 145 477 L 145 478 L 146 479 L 146 480 L 148 482 L 148 484 L 150 486 L 150 487 L 152 489 L 152 490 L 154 492 L 154 493 L 159 498 L 159 499 L 162 502 L 163 502 L 167 506 L 168 506 L 171 509 L 172 509 L 173 510 L 174 510 L 176 512 L 177 512 L 178 513 L 179 513 L 180 514 L 182 514 L 183 515 L 185 515 L 186 516 L 187 516 L 188 517 L 190 517 L 191 518 L 196 518 L 197 519 L 204 519 L 205 520 L 219 520 L 220 519 L 227 519 L 228 518 L 233 518 L 234 517 L 236 517 L 237 516 L 239 516 L 240 515 L 241 515 L 242 514 L 244 514 L 245 513 L 246 513 L 247 512 L 248 512 L 250 510 L 251 510 L 252 509 L 253 509 L 255 507 L 256 507 L 259 504 L 260 504 L 267 497 L 267 496 L 270 493 L 270 492 L 272 490 L 272 489 L 274 487 L 274 486 L 276 484 L 276 483 L 277 482 L 277 481 L 278 480 L 278 479 L 279 478 L 279 477 L 280 476 L 280 474 L 281 473 L 281 472 L 282 471 L 282 470 L 283 469 L 283 466 L 284 465 L 284 463 L 285 462 L 285 460 L 286 459 L 286 456 L 287 455 L 287 451 L 288 450 L 288 445 L 289 444 L 289 439 L 290 438 L 290 430 L 291 429 L 291 395 L 290 394 L 290 386 L 289 385 L 289 380 L 288 379 L 288 375 L 287 374 L 287 369 L 286 368 L 286 366 L 285 365 L 285 362 L 284 361 L 284 359 L 283 358 L 283 356 L 282 355 L 282 353 L 281 352 L 281 351 L 280 350 L 280 349 L 279 348 L 279 346 L 278 345 L 278 344 L 276 342 L 276 341 L 275 340 L 275 339 L 274 338 L 274 337 L 272 335 L 272 334 L 270 332 L 270 331 L 257 318 L 256 318 L 254 316 L 253 316 L 251 314 L 250 314 L 249 313 L 248 313 L 247 312 L 246 312 L 245 311 L 244 311 L 243 310 L 242 310 L 241 309 L 239 309 L 238 308 L 235 308 L 234 307 L 232 307 L 231 306 L 227 306 L 226 305 Z M 205 344 L 206 343 L 218 343 L 219 344 L 222 344 L 223 345 L 224 345 L 225 346 L 226 346 L 227 347 L 228 347 L 231 350 L 232 350 L 235 353 L 235 354 L 237 356 L 237 357 L 239 359 L 239 360 L 240 361 L 240 363 L 241 364 L 241 365 L 242 366 L 242 368 L 243 369 L 243 371 L 244 372 L 244 376 L 245 377 L 245 383 L 246 384 L 246 391 L 247 392 L 247 432 L 246 433 L 246 440 L 245 441 L 245 447 L 244 448 L 244 452 L 243 453 L 243 455 L 242 456 L 242 458 L 241 459 L 241 461 L 240 462 L 240 463 L 239 464 L 239 465 L 238 466 L 238 467 L 236 469 L 236 470 L 230 476 L 229 476 L 227 478 L 226 478 L 225 479 L 224 479 L 223 480 L 219 480 L 218 481 L 206 481 L 205 480 L 201 480 L 200 479 L 199 479 L 198 478 L 197 478 L 195 476 L 194 476 L 190 472 L 190 471 L 187 468 L 187 467 L 185 465 L 185 464 L 184 463 L 184 462 L 183 461 L 183 459 L 182 458 L 182 455 L 181 454 L 181 452 L 180 451 L 180 447 L 179 446 L 179 442 L 178 441 L 178 432 L 177 431 L 177 393 L 178 392 L 178 383 L 179 382 L 179 378 L 180 377 L 180 374 L 181 373 L 181 370 L 182 369 L 182 366 L 183 365 L 183 364 L 184 363 L 184 362 L 185 361 L 185 360 L 186 359 L 186 358 L 187 357 L 187 356 L 196 347 L 197 347 L 198 346 L 199 346 L 200 345 L 201 345 L 202 344 Z M 146 186 L 145 187 L 140 187 L 139 188 L 135 188 L 134 189 L 131 189 L 130 190 L 127 190 L 126 191 L 123 191 L 122 192 L 121 192 L 120 193 L 118 193 L 117 194 L 116 194 L 115 195 L 113 195 L 112 196 L 111 196 L 110 197 L 109 197 L 108 198 L 107 198 L 106 199 L 104 199 L 102 201 L 101 201 L 100 202 L 99 202 L 98 203 L 97 203 L 95 205 L 94 205 L 92 207 L 91 207 L 90 208 L 89 208 L 86 211 L 85 211 L 81 215 L 80 215 L 75 220 L 74 220 L 60 234 L 60 235 L 55 240 L 55 241 L 51 245 L 51 246 L 48 249 L 48 250 L 46 252 L 46 253 L 43 256 L 43 257 L 42 258 L 42 259 L 40 261 L 40 262 L 38 264 L 38 265 L 37 266 L 37 267 L 35 269 L 35 270 L 34 271 L 34 272 L 33 273 L 33 274 L 32 275 L 32 276 L 31 277 L 31 278 L 30 279 L 30 280 L 29 281 L 29 282 L 28 283 L 28 284 L 27 285 L 27 286 L 26 287 L 26 288 L 25 289 L 25 291 L 24 292 L 24 293 L 23 294 L 23 295 L 22 296 L 22 297 L 21 298 L 21 300 L 20 301 L 20 303 L 19 304 L 19 305 L 18 306 L 18 308 L 17 309 L 17 311 L 16 312 L 16 314 L 15 315 L 15 317 L 14 318 L 14 320 L 13 321 L 13 323 L 12 324 L 12 327 L 11 328 L 11 331 L 10 332 L 10 334 L 9 335 L 9 338 L 8 339 L 8 343 L 7 344 L 7 348 L 6 349 L 6 353 L 5 354 L 5 358 L 4 359 L 4 365 L 3 366 L 3 373 L 2 374 L 2 383 L 1 384 L 1 395 L 0 396 L 0 426 L 1 427 L 1 438 L 2 439 L 2 448 L 3 449 L 3 456 L 4 457 L 4 463 L 5 464 L 5 468 L 6 469 L 6 473 L 7 474 L 7 478 L 8 479 L 8 483 L 9 484 L 9 487 L 10 488 L 10 490 L 11 491 L 11 494 L 12 495 L 12 498 L 13 499 L 13 501 L 14 502 L 14 504 L 15 505 L 15 507 L 16 508 L 16 510 L 17 511 L 17 513 L 18 514 L 18 516 L 19 517 L 19 518 L 20 519 L 20 521 L 21 522 L 21 524 L 22 525 L 22 526 L 23 527 L 23 528 L 24 529 L 24 530 L 25 531 L 25 533 L 26 534 L 26 535 L 27 536 L 27 537 L 28 538 L 28 539 L 29 540 L 29 541 L 30 542 L 30 543 L 31 544 L 31 545 L 32 546 L 32 547 L 33 548 L 33 549 L 34 550 L 34 551 L 35 552 L 35 553 L 38 556 L 38 557 L 39 558 L 39 559 L 40 560 L 40 561 L 42 563 L 42 564 L 43 565 L 43 566 L 46 569 L 46 570 L 48 572 L 48 573 L 51 576 L 51 577 L 55 581 L 55 582 L 60 587 L 60 588 L 74 602 L 75 602 L 80 607 L 81 607 L 85 611 L 86 611 L 88 613 L 89 613 L 91 615 L 92 615 L 94 617 L 95 617 L 97 619 L 98 619 L 99 620 L 100 620 L 101 621 L 102 621 L 104 623 L 106 623 L 107 624 L 108 624 L 109 625 L 110 625 L 111 626 L 112 626 L 113 627 L 114 627 L 115 628 L 117 628 L 118 629 L 120 629 L 121 630 L 123 630 L 124 631 L 126 631 L 127 632 L 130 632 L 131 633 L 135 633 L 136 634 L 140 634 L 141 635 L 147 635 L 148 636 L 1707 636 L 1708 635 L 1714 635 L 1715 634 L 1719 634 L 1720 633 L 1723 633 L 1724 632 L 1728 632 L 1729 631 L 1731 631 L 1732 630 L 1734 630 L 1735 629 L 1736 629 L 1737 628 L 1739 628 L 1740 627 L 1742 627 L 1743 626 L 1744 626 L 1745 625 L 1746 625 L 1747 624 L 1748 624 L 1749 623 L 1750 623 L 1751 622 L 1752 622 L 1753 621 L 1754 621 L 1755 620 L 1756 620 L 1758 618 L 1759 618 L 1760 617 L 1761 617 L 1763 615 L 1764 615 L 1767 612 L 1768 612 L 1770 610 L 1771 610 L 1775 606 L 1776 606 L 1781 601 L 1782 601 L 1782 600 L 1783 599 L 1784 599 L 1791 592 L 1791 591 L 1799 583 L 1799 582 L 1802 579 L 1802 578 L 1805 575 L 1805 574 L 1809 570 L 1809 569 L 1811 567 L 1811 566 L 1812 565 L 1812 564 L 1814 562 L 1814 561 L 1816 559 L 1816 558 L 1817 557 L 1817 556 L 1819 554 L 1819 553 L 1820 552 L 1820 551 L 1821 550 L 1821 549 L 1822 548 L 1822 547 L 1824 545 L 1824 544 L 1825 543 L 1825 542 L 1826 541 L 1826 539 L 1827 538 L 1827 537 L 1828 536 L 1828 535 L 1829 534 L 1829 533 L 1830 532 L 1830 531 L 1831 530 L 1831 528 L 1832 527 L 1832 526 L 1833 525 L 1833 524 L 1834 523 L 1834 522 L 1835 521 L 1835 518 L 1836 517 L 1836 516 L 1837 515 L 1837 513 L 1838 512 L 1838 511 L 1839 510 L 1839 507 L 1840 506 L 1840 504 L 1841 503 L 1841 501 L 1842 500 L 1842 498 L 1843 497 L 1843 494 L 1844 493 L 1844 490 L 1845 489 L 1845 487 L 1846 486 L 1846 483 L 1847 482 L 1847 479 L 1848 478 L 1848 473 L 1849 472 L 1849 468 L 1850 467 L 1850 462 L 1851 461 L 1851 457 L 1852 456 L 1852 446 L 1853 445 L 1853 435 L 1854 434 L 1854 387 L 1853 386 L 1853 377 L 1852 376 L 1852 366 L 1851 365 L 1851 360 L 1850 359 L 1850 355 L 1849 354 L 1849 350 L 1848 349 L 1848 344 L 1847 343 L 1847 340 L 1846 339 L 1846 336 L 1845 335 L 1845 333 L 1844 332 L 1844 329 L 1843 328 L 1843 325 L 1842 324 L 1842 322 L 1841 321 L 1841 319 L 1840 318 L 1840 316 L 1839 315 L 1839 312 L 1838 311 L 1838 310 L 1837 309 L 1837 307 L 1836 306 L 1836 304 L 1835 303 L 1835 302 L 1834 301 L 1834 299 L 1833 298 L 1833 297 L 1832 296 L 1832 295 L 1831 294 L 1831 292 L 1830 291 L 1830 290 L 1829 289 L 1829 287 L 1827 285 L 1827 284 L 1826 283 L 1826 281 L 1825 280 L 1825 279 L 1824 278 L 1824 277 L 1822 275 L 1822 274 L 1821 273 L 1821 272 L 1820 271 L 1820 270 L 1819 269 L 1819 268 L 1817 266 L 1817 265 L 1816 264 L 1816 263 L 1814 261 L 1814 260 L 1813 259 L 1813 258 L 1811 256 L 1811 255 L 1808 252 L 1808 251 L 1806 249 L 1806 248 L 1803 245 L 1803 244 L 1800 241 L 1800 240 L 1791 231 L 1791 230 L 1782 221 L 1781 221 L 1775 215 L 1774 215 L 1771 212 L 1770 212 L 1767 209 L 1766 209 L 1764 207 L 1763 207 L 1761 205 L 1760 205 L 1759 204 L 1758 204 L 1756 202 L 1755 202 L 1754 201 L 1753 201 L 1752 200 L 1751 200 L 1750 199 L 1749 199 L 1748 198 L 1747 198 L 1746 197 L 1745 197 L 1744 196 L 1743 196 L 1742 195 L 1740 195 L 1739 194 L 1738 194 L 1737 193 L 1735 193 L 1734 192 L 1732 192 L 1731 191 L 1729 191 L 1728 190 L 1724 190 L 1723 189 L 1721 189 L 1720 188 L 1716 188 L 1715 187 L 1709 187 L 1708 186 Z M 154 232 L 155 231 L 1699 231 L 1700 232 L 1708 232 L 1709 233 L 1714 233 L 1715 234 L 1718 234 L 1719 235 L 1721 235 L 1722 236 L 1723 236 L 1724 237 L 1726 237 L 1727 238 L 1728 238 L 1729 239 L 1730 239 L 1731 240 L 1732 240 L 1733 241 L 1734 241 L 1735 242 L 1736 242 L 1737 243 L 1738 243 L 1740 245 L 1741 245 L 1743 247 L 1744 247 L 1747 250 L 1748 250 L 1752 254 L 1753 254 L 1765 266 L 1765 267 L 1770 272 L 1770 273 L 1773 276 L 1773 277 L 1775 279 L 1775 280 L 1778 283 L 1778 284 L 1779 285 L 1779 286 L 1781 288 L 1781 289 L 1782 290 L 1782 291 L 1783 292 L 1783 293 L 1785 295 L 1785 296 L 1786 297 L 1786 298 L 1787 299 L 1787 300 L 1788 301 L 1788 302 L 1789 303 L 1789 304 L 1790 305 L 1790 306 L 1791 307 L 1791 308 L 1792 309 L 1792 311 L 1793 312 L 1793 313 L 1794 314 L 1794 315 L 1795 316 L 1795 318 L 1796 319 L 1796 321 L 1797 322 L 1797 323 L 1798 324 L 1798 326 L 1799 327 L 1799 328 L 1800 329 L 1800 332 L 1801 333 L 1801 336 L 1802 337 L 1802 339 L 1803 340 L 1803 342 L 1804 343 L 1804 346 L 1805 347 L 1805 351 L 1806 352 L 1806 355 L 1807 356 L 1807 360 L 1808 361 L 1808 365 L 1809 366 L 1809 372 L 1810 373 L 1810 382 L 1811 383 L 1811 392 L 1812 393 L 1812 429 L 1811 430 L 1811 439 L 1810 440 L 1810 449 L 1809 450 L 1809 456 L 1808 457 L 1808 461 L 1807 462 L 1807 465 L 1806 466 L 1806 470 L 1805 471 L 1805 475 L 1804 476 L 1804 479 L 1803 480 L 1803 482 L 1802 483 L 1802 485 L 1801 486 L 1801 489 L 1800 490 L 1800 492 L 1799 493 L 1799 495 L 1798 496 L 1798 498 L 1797 499 L 1797 500 L 1796 501 L 1796 503 L 1795 504 L 1795 506 L 1794 507 L 1794 508 L 1793 509 L 1793 510 L 1792 511 L 1792 513 L 1791 514 L 1791 515 L 1790 516 L 1790 517 L 1789 518 L 1789 519 L 1788 520 L 1788 521 L 1787 522 L 1787 523 L 1786 524 L 1786 525 L 1785 526 L 1785 527 L 1783 529 L 1783 530 L 1782 531 L 1782 532 L 1781 533 L 1781 534 L 1779 536 L 1779 537 L 1778 538 L 1778 539 L 1775 542 L 1775 543 L 1773 545 L 1773 546 L 1770 549 L 1770 550 L 1765 555 L 1765 556 L 1753 568 L 1752 568 L 1748 572 L 1747 572 L 1744 575 L 1743 575 L 1741 577 L 1740 577 L 1738 579 L 1737 579 L 1736 580 L 1735 580 L 1734 581 L 1733 581 L 1732 582 L 1731 582 L 1730 583 L 1729 583 L 1728 584 L 1727 584 L 1726 585 L 1724 585 L 1723 586 L 1721 586 L 1720 587 L 1718 587 L 1717 588 L 1715 588 L 1714 589 L 1710 589 L 1709 590 L 145 590 L 144 589 L 141 589 L 140 588 L 137 588 L 136 587 L 135 587 L 134 586 L 131 586 L 130 585 L 129 585 L 128 584 L 127 584 L 126 583 L 125 583 L 124 582 L 123 582 L 122 581 L 121 581 L 120 580 L 119 580 L 118 579 L 117 579 L 115 577 L 114 577 L 113 576 L 112 576 L 109 573 L 108 573 L 104 569 L 103 569 L 89 555 L 89 554 L 84 549 L 84 548 L 81 545 L 81 544 L 79 542 L 79 541 L 77 539 L 77 538 L 75 536 L 75 535 L 73 533 L 73 532 L 72 531 L 72 530 L 71 529 L 71 528 L 69 526 L 69 525 L 68 524 L 68 522 L 67 521 L 67 520 L 65 518 L 65 517 L 64 516 L 64 514 L 63 513 L 63 512 L 62 511 L 62 510 L 61 509 L 61 508 L 60 507 L 60 505 L 59 504 L 59 502 L 58 501 L 58 499 L 57 498 L 57 497 L 56 496 L 56 494 L 55 493 L 55 490 L 54 489 L 54 487 L 53 486 L 53 484 L 52 483 L 52 481 L 51 480 L 51 477 L 50 476 L 50 472 L 49 471 L 49 468 L 48 467 L 48 464 L 47 463 L 47 458 L 46 457 L 46 450 L 45 449 L 45 444 L 44 443 L 44 435 L 43 434 L 43 388 L 44 387 L 44 380 L 45 379 L 45 373 L 46 372 L 46 365 L 47 364 L 47 359 L 48 358 L 48 355 L 49 354 L 49 351 L 50 350 L 50 346 L 51 345 L 51 342 L 52 341 L 52 339 L 53 338 L 53 336 L 54 335 L 54 333 L 55 332 L 55 329 L 56 328 L 56 326 L 57 325 L 57 323 L 58 322 L 58 321 L 59 320 L 59 318 L 60 317 L 60 315 L 61 314 L 61 313 L 62 312 L 62 311 L 63 310 L 63 309 L 64 308 L 64 306 L 65 305 L 65 304 L 66 303 L 66 302 L 68 300 L 68 298 L 69 297 L 69 296 L 71 294 L 71 293 L 72 292 L 72 291 L 73 290 L 73 289 L 75 287 L 75 286 L 77 284 L 77 283 L 78 282 L 78 281 L 81 278 L 81 277 L 84 274 L 84 273 L 88 269 L 88 268 L 103 253 L 104 253 L 108 249 L 109 249 L 112 246 L 113 246 L 115 244 L 116 244 L 117 243 L 118 243 L 119 242 L 120 242 L 121 241 L 122 241 L 124 239 L 125 239 L 126 238 L 128 238 L 129 237 L 131 237 L 132 236 L 133 236 L 134 235 L 136 235 L 137 234 L 139 234 L 140 233 L 146 233 L 147 232 Z M 1841 103 L 1841 160 L 1849 160 L 1849 136 L 1850 135 L 1860 135 L 1861 136 L 1863 136 L 1867 140 L 1867 141 L 1870 144 L 1870 145 L 1871 146 L 1871 147 L 1873 149 L 1873 150 L 1874 151 L 1874 152 L 1875 153 L 1875 154 L 1877 156 L 1877 157 L 1878 158 L 1878 159 L 1879 160 L 1888 160 L 1887 159 L 1887 158 L 1885 156 L 1885 155 L 1884 154 L 1884 153 L 1883 152 L 1883 151 L 1880 148 L 1880 147 L 1879 146 L 1879 145 L 1877 143 L 1877 142 L 1871 136 L 1870 136 L 1869 135 L 1869 134 L 1870 133 L 1872 133 L 1873 132 L 1876 132 L 1878 130 L 1879 130 L 1882 127 L 1882 126 L 1883 125 L 1883 123 L 1884 122 L 1884 114 L 1883 113 L 1883 111 L 1878 106 L 1877 106 L 1876 105 L 1875 105 L 1874 104 L 1870 104 L 1869 103 Z M 1849 110 L 1850 109 L 1865 109 L 1866 110 L 1871 110 L 1873 112 L 1874 112 L 1875 113 L 1875 114 L 1876 115 L 1876 116 L 1877 117 L 1877 120 L 1876 121 L 1876 123 L 1872 127 L 1871 127 L 1870 128 L 1868 128 L 1867 129 L 1850 129 L 1849 128 Z M 1860 77 L 1859 78 L 1854 78 L 1853 79 L 1850 79 L 1849 80 L 1847 80 L 1846 81 L 1844 81 L 1843 82 L 1842 82 L 1841 83 L 1840 83 L 1839 84 L 1838 84 L 1837 85 L 1836 85 L 1835 86 L 1834 86 L 1831 89 L 1830 89 L 1823 96 L 1823 97 L 1821 99 L 1821 100 L 1818 103 L 1818 104 L 1817 105 L 1817 107 L 1816 108 L 1816 109 L 1815 110 L 1815 111 L 1814 112 L 1814 114 L 1813 115 L 1813 118 L 1812 119 L 1812 123 L 1811 124 L 1811 137 L 1812 138 L 1812 142 L 1813 143 L 1813 146 L 1814 147 L 1814 149 L 1815 150 L 1815 151 L 1816 152 L 1816 154 L 1817 155 L 1817 156 L 1818 157 L 1818 158 L 1820 160 L 1820 161 L 1823 164 L 1823 165 L 1830 172 L 1831 172 L 1834 175 L 1835 175 L 1836 176 L 1837 176 L 1839 178 L 1840 178 L 1841 179 L 1842 179 L 1843 180 L 1846 180 L 1847 181 L 1849 181 L 1850 182 L 1852 182 L 1853 183 L 1857 183 L 1858 184 L 1870 184 L 1871 183 L 1875 183 L 1876 182 L 1879 182 L 1880 181 L 1882 181 L 1883 180 L 1885 180 L 1886 179 L 1887 179 L 1888 178 L 1889 178 L 1890 177 L 1891 177 L 1892 176 L 1893 176 L 1895 174 L 1896 174 L 1899 171 L 1900 171 L 1905 166 L 1905 165 L 1907 163 L 1907 162 L 1909 160 L 1909 159 L 1910 158 L 1910 157 L 1912 155 L 1912 154 L 1913 153 L 1913 151 L 1914 150 L 1914 148 L 1915 147 L 1915 145 L 1916 144 L 1916 117 L 1915 116 L 1915 114 L 1914 113 L 1914 111 L 1913 110 L 1913 109 L 1912 108 L 1912 106 L 1910 104 L 1910 103 L 1909 102 L 1909 101 L 1907 99 L 1907 98 L 1903 94 L 1903 93 L 1902 93 L 1897 88 L 1896 88 L 1894 86 L 1893 86 L 1892 85 L 1891 85 L 1889 83 L 1888 83 L 1887 82 L 1886 82 L 1885 81 L 1883 81 L 1882 80 L 1879 80 L 1878 79 L 1875 79 L 1874 78 L 1870 78 L 1869 77 Z M 1857 85 L 1858 84 L 1870 84 L 1871 85 L 1875 85 L 1876 86 L 1878 86 L 1879 87 L 1880 87 L 1881 88 L 1883 88 L 1884 89 L 1885 89 L 1886 90 L 1887 90 L 1888 91 L 1889 91 L 1891 93 L 1892 93 L 1901 102 L 1901 103 L 1904 106 L 1904 107 L 1905 108 L 1905 109 L 1906 110 L 1906 111 L 1907 112 L 1907 114 L 1908 115 L 1908 116 L 1909 117 L 1909 119 L 1910 120 L 1910 126 L 1911 127 L 1911 134 L 1910 135 L 1910 141 L 1909 142 L 1909 144 L 1908 145 L 1908 147 L 1907 148 L 1907 149 L 1906 150 L 1906 151 L 1905 152 L 1905 153 L 1904 154 L 1904 155 L 1902 157 L 1902 158 L 1892 168 L 1891 168 L 1889 170 L 1888 170 L 1886 172 L 1885 172 L 1884 173 L 1882 173 L 1881 174 L 1880 174 L 1879 175 L 1877 175 L 1876 176 L 1873 176 L 1872 177 L 1857 177 L 1856 176 L 1853 176 L 1852 175 L 1850 175 L 1849 174 L 1848 174 L 1847 173 L 1845 173 L 1844 172 L 1843 172 L 1842 171 L 1841 171 L 1839 169 L 1838 169 L 1836 167 L 1835 167 L 1828 160 L 1828 159 L 1826 157 L 1826 156 L 1824 154 L 1824 153 L 1823 152 L 1823 151 L 1822 150 L 1822 149 L 1821 148 L 1821 146 L 1820 145 L 1820 143 L 1819 142 L 1819 139 L 1818 138 L 1818 123 L 1819 122 L 1819 119 L 1820 118 L 1820 116 L 1821 115 L 1821 113 L 1822 112 L 1822 111 L 1823 110 L 1823 109 L 1824 108 L 1824 107 L 1826 105 L 1826 104 L 1829 101 L 1829 100 L 1834 95 L 1835 95 L 1838 92 L 1839 92 L 1840 91 L 1841 91 L 1843 89 L 1844 89 L 1845 88 L 1847 88 L 1848 87 L 1850 87 L 1851 86 L 1853 86 L 1854 85 Z"/>
    <path id="white-alpha-240" fill-opacity="0.941176" fill-rule="evenodd" d="M 1724 633 L 1725 633 Z M 1794 589 L 1792 591 Z M 145 589 L 146 589 Z M 1804 577 L 1803 578 Z M 102 567 L 103 568 Z M 1754 566 L 1753 567 Z M 1764 556 L 1763 557 Z M 1669 519 L 1670 519 Z M 1636 519 L 1637 519 Z M 397 519 L 398 519 Z M 365 519 L 366 519 Z M 228 519 L 229 519 Z M 195 519 L 196 519 Z M 163 503 L 164 504 Z M 1600 499 L 1604 503 Z M 328 498 L 333 503 Z M 157 497 L 158 498 Z M 441 493 L 440 494 Z M 612 477 L 612 478 Z M 51 475 L 51 476 Z M 1635 473 L 1636 474 Z M 1676 472 L 1675 473 Z M 1730 457 L 1730 458 Z M 3 457 L 3 458 Z M 1809 448 L 1809 449 Z M 1853 446 L 1853 448 Z M 244 446 L 244 447 Z M 1686 443 L 1686 449 Z M 1621 439 L 1621 440 Z M 1576 439 L 1576 440 Z M 1 439 L 1 440 Z M 305 437 L 305 439 Z M 1249 436 L 1250 436 Z M 699 436 L 699 437 Z M 134 436 L 134 437 Z M 1854 435 L 1854 436 Z M 44 433 L 44 434 Z M 349 432 L 349 434 Z M 1620 429 L 1620 430 Z M 1575 429 L 1575 430 Z M 1124 428 L 1184 428 Z M 992 428 L 1052 428 Z M 526 428 L 586 428 Z M 178 427 L 178 431 Z M 304 425 L 304 427 Z M 133 424 L 133 426 Z M 1855 401 L 1855 421 Z M 691 398 L 691 399 Z M 304 398 L 304 400 Z M 133 398 L 133 401 Z M 1620 394 L 1620 395 Z M 1575 394 L 1575 395 Z M 678 394 L 678 395 Z M 178 393 L 178 398 Z M 349 390 L 349 392 Z M 44 388 L 44 389 Z M 134 387 L 134 388 Z M 305 386 L 305 387 Z M 1576 384 L 1576 385 Z M 1336 384 L 1336 385 Z M 1 382 L 1 383 Z M 1686 377 L 1686 380 Z M 244 377 L 244 378 Z M 1853 374 L 1853 376 Z M 1809 373 L 1809 374 Z M 288 373 L 288 374 Z M 1730 371 L 1730 373 Z M 1292 369 L 1292 370 Z M 684 369 L 683 370 Z M 1336 365 L 1336 366 Z M 3 364 L 3 365 Z M 647 359 L 647 360 Z M 232 351 L 234 353 Z M 366 350 L 365 351 Z M 1268 348 L 1269 348 Z M 1251 348 L 1266 348 Z M 1597 329 L 1596 330 Z M 436 325 L 437 326 Z M 261 321 L 266 326 Z M 1401 310 L 1401 516 Z M 1519 309 L 1519 414 Z M 1077 309 L 1077 517 Z M 479 309 L 479 516 Z M 1645 304 L 1661 304 Z M 373 304 L 389 304 Z M 204 304 L 220 304 Z M 90 267 L 89 268 Z M 1763 265 L 1764 266 Z M 1753 255 L 1754 256 Z M 1792 231 L 1795 234 Z M 76 218 L 75 219 Z M 82 213 L 81 214 Z M 1871 176 L 1872 176 Z M 1865 139 L 1866 140 Z M 1865 128 L 1867 128 Z M 1910 127 L 1910 134 Z M 1880 107 L 1881 108 Z M 1834 96 L 1830 100 Z M 1904 94 L 1905 95 Z M 1900 90 L 1902 92 Z"/>
    <path id="white-alpha-224" fill-opacity="0.878431" fill-rule="evenodd" d="M 76 604 L 77 605 Z M 1781 602 L 1780 603 Z M 1756 564 L 1755 565 Z M 1760 560 L 1758 562 Z M 91 556 L 92 557 Z M 1662 520 L 1663 520 Z M 1643 520 L 1644 520 Z M 390 520 L 391 520 Z M 221 520 L 222 520 Z M 334 504 L 335 505 Z M 1712 497 L 1708 501 Z M 1598 497 L 1599 498 Z M 402 474 L 401 475 Z M 1849 473 L 1849 474 Z M 191 472 L 193 474 Z M 1576 441 L 1576 442 Z M 179 439 L 179 440 Z M 134 438 L 134 439 Z M 1854 437 L 1854 438 Z M 304 428 L 304 429 Z M 1811 427 L 1811 428 Z M 133 427 L 133 428 Z M 0 427 L 0 429 Z M 1517 415 L 1518 416 L 1519 415 L 1518 416 Z M 1731 404 L 1731 447 Z M 133 396 L 133 397 Z M 304 395 L 304 397 Z M 1811 393 L 1811 395 Z M 0 393 L 0 395 Z M 415 390 L 458 390 Z M 414 387 L 414 388 Z M 134 385 L 134 386 Z M 305 384 L 305 385 Z M 179 384 L 179 385 Z M 1854 383 L 1854 385 Z M 1576 382 L 1576 383 Z M 1853 372 L 1853 373 Z M 1849 348 L 1849 349 Z M 1657 344 L 1658 344 Z M 1648 344 L 1649 344 Z M 389 344 L 390 344 Z M 207 344 L 208 344 Z M 1317 325 L 1318 326 Z M 434 323 L 435 324 Z M 331 323 L 330 324 Z M 163 321 L 158 326 Z M 920 310 L 920 516 Z M 1520 308 L 1557 308 Z M 1420 308 L 1460 308 Z M 1361 308 L 1401 308 Z M 1206 308 L 1279 308 Z M 1078 308 L 1185 308 Z M 946 308 L 945 309 L 945 517 L 945 309 L 946 308 L 1053 308 Z M 882 308 L 919 308 Z M 783 308 L 822 308 Z M 663 308 L 704 308 Z M 480 308 L 587 308 Z M 1760 262 L 1762 264 Z M 1755 257 L 1757 259 Z M 58 236 L 57 237 Z M 1713 234 L 1714 234 Z M 156 232 L 1699 232 Z M 1869 176 L 1870 176 Z M 1858 176 L 1859 176 Z M 1830 161 L 1834 165 Z M 1873 137 L 1875 139 Z M 1851 128 L 1864 128 Z M 1876 118 L 1876 120 Z M 1868 85 L 1869 85 Z M 1859 85 L 1861 85 Z"/>
    <path id="white-alpha-208" fill-opacity="0.815686" fill-rule="evenodd" d="M 370 520 L 371 520 Z M 201 520 L 202 520 Z M 437 498 L 433 502 Z M 1054 479 L 1054 517 Z M 233 472 L 232 473 Z M 363 471 L 365 473 Z M 2 451 L 2 452 Z M 1731 448 L 1731 450 Z M 1854 439 L 1854 440 Z M 179 437 L 179 438 Z M 1575 432 L 1575 433 Z M 44 430 L 44 431 Z M 348 408 L 348 416 Z M 1286 393 L 1285 394 Z M 291 392 L 291 393 Z M 1575 391 L 1575 392 Z M 44 391 L 44 392 Z M 1054 390 L 1054 428 Z M 179 386 L 179 387 Z M 350 385 L 350 386 Z M 1731 378 L 1731 379 Z M 2 370 L 2 371 Z M 1285 355 L 1286 356 Z M 1650 344 L 1656 344 Z M 381 344 L 388 344 Z M 209 344 L 216 344 Z M 1710 327 L 1711 328 Z M 329 325 L 328 326 Z M 1601 324 L 1599 326 Z M 1604 321 L 1603 322 Z M 334 320 L 333 321 Z M 1054 309 L 1054 348 Z M 92 265 L 91 266 Z M 1758 260 L 1759 261 Z M 1796 235 L 1797 236 Z M 65 228 L 64 229 Z M 69 224 L 68 225 Z M 1867 176 L 1868 176 Z M 1860 176 L 1861 176 Z M 1885 116 L 1885 118 Z M 1851 110 L 1863 110 Z M 1862 85 L 1867 85 Z"/>
    <path id="white-alpha-192" fill-opacity="0.752941" fill-rule="evenodd" d="M 64 593 L 70 599 Z M 93 558 L 100 565 Z M 1665 520 L 1666 520 Z M 1186 480 L 1186 516 Z M 1124 478 L 1185 478 Z M 992 478 L 1053 478 Z M 526 478 L 587 478 Z M 1731 451 L 1731 452 Z M 415 436 L 458 436 Z M 1575 434 L 1575 435 Z M 304 431 L 304 432 Z M 133 430 L 133 431 Z M 246 427 L 246 429 Z M 44 427 L 44 429 Z M 1620 426 L 1620 427 Z M 1855 423 L 1855 427 Z M 1811 423 L 1811 425 Z M 178 422 L 178 425 Z M 292 406 L 292 418 Z M 1574 405 L 1574 419 Z M 1458 404 L 1458 517 Z M 178 400 L 178 403 Z M 1620 397 L 1620 398 Z M 1811 396 L 1811 399 Z M 1855 395 L 1855 399 Z M 246 395 L 246 397 Z M 349 394 L 349 395 Z M 133 393 L 133 394 Z M 44 393 L 44 395 Z M 304 392 L 304 393 Z M 1186 390 L 1186 428 Z M 1687 381 L 1730 381 Z M 1292 377 L 1292 378 Z M 1337 373 L 1337 378 Z M 1292 371 L 1292 372 Z M 1186 309 L 1186 348 Z M 67 226 L 66 227 Z M 1827 170 L 1828 171 Z M 1824 167 L 1825 168 Z M 1850 137 L 1850 159 Z M 1850 111 L 1850 127 Z M 1826 92 L 1825 93 Z"/>
    <path id="white-alpha-176" fill-opacity="0.690196" fill-rule="evenodd" d="M 413 444 L 413 445 Z M 1854 442 L 1854 443 Z M 1249 437 L 1249 516 Z M 304 433 L 304 434 Z M 133 432 L 133 433 Z M 0 431 L 0 433 Z M 1459 402 L 1458 403 Z M 0 389 L 0 391 Z M 1854 379 L 1854 380 Z M 413 379 L 413 380 Z M 1636 351 L 1635 352 Z M 1249 350 L 1249 400 Z M 782 310 L 782 516 Z M 1360 309 L 1360 516 Z M 1280 308 L 1281 308 Z M 99 258 L 93 264 Z M 63 230 L 62 231 Z M 72 221 L 71 222 Z M 154 185 L 1700 185 Z M 1819 134 L 1819 135 Z M 1819 126 L 1819 127 Z M 1874 124 L 1873 125 Z M 1895 97 L 1898 100 Z"/>
    <path id="white-alpha-160" fill-opacity="0.627451" fill-rule="evenodd" d="M 71 600 L 72 601 Z M 62 591 L 63 592 Z M 1522 518 L 1557 518 Z M 1420 518 L 1457 518 Z M 1361 518 L 1401 518 Z M 1297 518 L 1345 518 Z M 1078 518 L 1185 518 Z M 946 518 L 1053 518 Z M 884 518 L 919 518 Z M 783 518 L 820 518 Z M 723 518 L 769 518 Z M 600 518 L 646 518 Z M 479 518 L 587 518 Z M 1855 428 L 1855 430 Z M 246 423 L 246 426 Z M 44 422 L 44 425 Z M 1811 415 L 1811 421 Z M 132 409 L 132 415 Z M 303 408 L 303 417 Z M 1811 401 L 1811 407 Z M 246 398 L 246 401 Z M 44 397 L 44 400 Z M 1855 392 L 1855 394 Z M 1337 380 L 1337 381 Z M 1337 369 L 1337 371 Z M 1205 309 L 1205 517 L 1206 518 L 1248 518 L 1206 518 L 1205 517 Z M 1785 223 L 1791 229 Z M 1863 176 L 1865 176 Z M 1898 161 L 1895 164 Z M 1810 130 L 1810 132 Z M 1824 94 L 1823 95 Z"/>
    <path id="white-alpha-144" fill-opacity="0.564706" fill-rule="evenodd" d="M 154 637 L 1700 637 Z M 1791 593 L 1785 599 Z M 1649 521 L 1657 521 Z M 377 521 L 385 521 Z M 209 521 L 216 521 Z M 159 500 L 161 502 Z M 266 499 L 262 503 Z M 1634 471 L 1635 472 Z M 413 442 L 413 443 Z M 991 430 L 991 476 Z M 1620 423 L 1620 425 Z M 1574 422 L 1574 424 Z M 178 406 L 178 418 Z M 1620 400 L 1620 401 Z M 1574 400 L 1574 403 Z M 349 396 L 349 397 Z M 413 381 L 413 382 Z M 1292 374 L 1292 375 Z M 991 351 L 991 387 Z M 402 350 L 403 351 Z"/>
    <path id="white-alpha-128" fill-opacity="0.501961" fill-rule="evenodd" d="M 1346 517 L 1346 518 Z M 588 480 L 588 517 Z M 659 478 L 658 479 L 659 478 L 709 478 Z M 1649 443 L 1684 443 Z M 459 437 L 459 440 Z M 1855 431 L 1855 433 Z M 1123 431 L 1123 475 Z M 292 420 L 292 423 Z M 1811 408 L 1811 414 Z M 292 401 L 292 404 Z M 588 390 L 588 428 Z M 1855 389 L 1855 390 Z M 0 386 L 0 387 Z M 459 383 L 459 389 Z M 1854 377 L 1854 378 Z M 1123 352 L 1123 386 Z M 193 351 L 191 353 Z M 1124 350 L 1185 350 Z M 992 350 L 1053 350 Z M 526 350 L 587 350 Z M 881 309 L 881 415 Z M 588 309 L 588 348 Z M 1819 129 L 1819 132 Z M 1842 102 L 1863 102 Z"/>
    <path id="white-alpha-112" fill-opacity="0.439216" fill-rule="evenodd" d="M 73 602 L 74 603 Z M 1793 591 L 1792 592 Z M 329 500 L 332 503 Z M 1676 471 L 1675 472 Z M 1810 433 L 1810 434 Z M 1574 426 L 1574 427 Z M 303 419 L 303 423 Z M 132 417 L 132 422 Z M 246 403 L 246 421 Z M 132 402 L 132 407 Z M 303 401 L 303 405 Z M 44 401 L 44 420 Z M 1574 397 L 1574 399 Z M 1810 388 L 1810 389 Z M 245 388 L 245 389 Z M 1674 352 L 1676 354 Z M 263 322 L 265 324 Z M 1558 309 L 1558 517 Z M 1793 231 L 1794 232 Z M 1782 220 L 1783 221 Z M 1703 185 L 1704 185 Z M 1905 167 L 1904 168 Z M 1810 133 L 1810 135 Z M 1810 126 L 1810 128 Z M 1902 91 L 1904 93 Z"/>
    <path id="white-alpha-96" fill-opacity="0.376471" fill-rule="evenodd" d="M 1702 637 L 1704 637 Z M 151 637 L 152 637 Z M 1783 601 L 1782 602 Z M 1659 521 L 1660 521 Z M 1645 521 L 1647 521 Z M 387 521 L 388 521 Z M 374 521 L 375 521 Z M 218 521 L 219 521 Z M 205 521 L 206 521 Z M 1600 500 L 1603 503 Z M 1651 480 L 1655 480 Z M 383 480 L 386 480 Z M 210 480 L 214 480 Z M 413 439 L 413 440 Z M 671 437 L 697 437 Z M 0 437 L 0 438 Z M 45 435 L 45 436 Z M 1855 434 L 1855 436 Z M 1124 429 L 1185 429 Z M 992 429 L 1053 429 Z M 526 429 L 587 429 Z M 1620 417 L 1620 421 Z M 1620 403 L 1620 408 Z M 821 403 L 821 517 Z M 1649 402 L 1730 402 Z M 179 391 L 179 392 Z M 1855 386 L 1855 387 Z M 45 386 L 45 387 Z M 0 384 L 0 385 Z M 1708 324 L 1709 325 Z M 1752 255 L 1753 256 Z M 1879 161 L 1888 161 Z M 1841 161 L 1849 161 Z M 1834 97 L 1831 100 Z M 1864 76 L 1865 76 Z"/>
    <path id="white-alpha-80" fill-opacity="0.313725" fill-rule="evenodd" d="M 1854 446 L 1854 447 Z M 1574 429 L 1574 430 Z M 303 425 L 303 427 Z M 292 425 L 292 427 Z M 349 424 L 349 425 Z M 132 424 L 132 426 Z M 1648 403 L 1648 442 Z M 349 399 L 349 401 Z M 132 399 L 132 400 Z M 303 398 L 303 400 Z M 292 398 L 292 399 Z M 1574 394 L 1574 395 Z M 365 352 L 364 353 Z M 266 325 L 267 326 Z M 434 322 L 438 326 Z M 261 320 L 262 321 Z M 1518 309 L 1518 412 Z M 1860 185 L 1867 185 Z M 1864 102 L 1867 102 Z"/>
    <path id="white-alpha-64" fill-opacity="0.25098" fill-rule="evenodd" d="M 1701 589 L 1702 589 Z M 153 589 L 154 589 Z M 1796 588 L 1795 589 Z M 101 565 L 102 566 Z M 1761 558 L 1755 564 Z M 1711 499 L 1710 500 Z M 192 472 L 193 473 Z M 459 443 L 459 444 Z M 0 439 L 0 440 Z M 413 437 L 413 438 Z M 245 433 L 245 434 Z M 525 431 L 525 476 Z M 1810 430 L 1810 431 Z M 1732 403 L 1732 446 Z M 1810 391 L 1810 392 Z M 413 387 L 413 390 Z M 1284 355 L 1286 357 Z M 525 352 L 525 386 Z M 1710 326 L 1711 327 Z M 158 325 L 157 326 Z M 1706 322 L 1707 323 Z M 162 321 L 160 323 Z M 478 310 L 478 516 Z M 921 308 L 921 517 Z M 92 266 L 91 267 Z M 1759 262 L 1762 265 Z M 1754 257 L 1756 259 Z M 1706 185 L 1707 185 Z M 148 185 L 149 185 Z M 1833 163 L 1834 164 Z M 1874 137 L 1875 138 Z M 1852 136 L 1857 136 Z"/>
    <path id="white-alpha-48" fill-opacity="0.188235" fill-rule="evenodd" d="M 148 637 L 149 637 Z M 1709 501 L 1708 502 Z M 437 499 L 433 503 Z M 1713 497 L 1712 498 Z M 232 472 L 231 473 Z M 1685 444 L 1685 447 Z M 1855 438 L 1855 439 Z M 1574 432 L 1574 433 Z M 245 431 L 245 432 Z M 179 430 L 179 431 Z M 45 430 L 45 432 Z M 303 428 L 303 430 Z M 1810 427 L 1810 429 Z M 132 427 L 132 429 Z M 1322 419 L 1319 422 Z M 1856 400 L 1856 422 Z M 132 396 L 132 397 Z M 303 395 L 303 396 Z M 1810 393 L 1810 395 Z M 179 393 L 179 394 Z M 245 392 L 245 393 Z M 45 390 L 45 392 Z M 1124 388 L 1186 388 Z M 992 388 L 1054 388 Z M 525 387 L 526 388 L 587 388 L 526 388 Z M 1855 383 L 1855 384 Z M 1732 380 L 1732 381 Z M 1685 379 L 1685 380 Z M 1317 324 L 1319 326 Z M 432 320 L 433 321 Z M 333 320 L 332 321 Z M 164 319 L 163 320 Z M 1402 308 L 1402 517 Z M 1647 303 L 1658 303 Z M 376 303 L 386 303 Z M 207 303 L 217 303 Z M 102 256 L 101 257 Z M 1700 233 L 1702 233 Z M 153 233 L 154 233 Z M 1810 138 L 1810 139 Z M 1909 133 L 1909 134 Z M 1909 127 L 1909 128 Z M 1865 127 L 1866 127 Z M 1886 116 L 1886 120 Z M 1867 76 L 1868 76 Z M 1860 76 L 1862 76 Z"/>
    <path id="white-alpha-32" fill-opacity="0.12549" fill-rule="evenodd" d="M 1707 637 L 1709 637 Z M 146 637 L 147 637 Z M 64 594 L 69 599 Z M 94 558 L 100 564 Z M 87 550 L 88 551 Z M 335 506 L 336 507 Z M 1707 503 L 1706 504 Z M 325 496 L 326 497 Z M 364 471 L 365 472 Z M 1805 465 L 1805 466 Z M 458 454 L 458 455 Z M 1732 448 L 1732 450 Z M 0 442 L 0 443 Z M 46 441 L 46 442 Z M 291 440 L 291 441 Z M 292 428 L 292 430 Z M 245 428 L 245 430 Z M 1856 423 L 1856 426 Z M 1810 423 L 1810 426 Z M 349 417 L 349 422 Z M 1620 410 L 1620 414 Z M 349 402 L 349 407 Z M 1856 396 L 1856 399 Z M 1810 396 L 1810 399 Z M 292 394 L 292 396 Z M 245 394 L 245 396 Z M 414 391 L 458 391 Z M 46 380 L 46 381 Z M 0 379 L 0 380 Z M 1805 356 L 1805 357 Z M 1250 349 L 1267 349 Z M 156 327 L 155 328 Z M 1599 325 L 1598 326 Z M 1315 322 L 1316 323 Z M 1704 320 L 1705 321 Z M 1419 308 L 1419 517 Z M 100 258 L 94 264 Z M 56 237 L 55 238 Z M 155 233 L 1699 233 Z M 70 222 L 63 229 Z M 1870 185 L 1871 185 Z M 1823 167 L 1824 168 Z M 1875 117 L 1875 120 Z M 1840 104 L 1840 160 Z M 1860 86 L 1861 86 Z M 1869 76 L 1871 76 Z M 1858 76 L 1859 76 Z"/>
    <path id="white-alpha-16" fill-opacity="0.0627451" fill-rule="evenodd" d="M 1710 637 L 1711 637 Z M 144 637 L 145 637 Z M 78 607 L 79 608 Z M 70 600 L 72 602 Z M 1790 595 L 1788 597 Z M 61 591 L 63 593 Z M 156 589 L 1699 589 Z M 1799 585 L 1798 586 Z M 1807 575 L 1806 576 Z M 190 519 L 191 519 Z M 599 517 L 599 518 Z M 432 504 L 431 505 Z M 158 500 L 159 501 Z M 267 499 L 262 504 Z M 440 496 L 439 497 Z M 1716 494 L 1715 495 Z M 444 491 L 443 492 Z M 713 488 L 713 489 Z M 656 488 L 656 489 Z M 608 486 L 608 487 Z M 1124 477 L 1186 477 Z M 992 477 L 1054 477 L 1055 478 L 1055 518 L 1055 478 L 1054 477 Z M 526 477 L 588 477 Z M 1634 470 L 1635 471 Z M 51 470 L 51 471 Z M 3 464 L 3 466 Z M 1730 463 L 1730 464 Z M 1853 456 L 1853 457 Z M 47 449 L 47 450 Z M 459 446 L 459 448 Z M 412 444 L 412 445 Z M 1855 440 L 1855 441 Z M 46 439 L 46 440 Z M 244 438 L 244 440 Z M 1809 436 L 1809 439 Z M 1574 434 L 1574 435 Z M 303 431 L 303 432 Z M 292 431 L 292 434 Z M 132 430 L 132 431 Z M 45 427 L 45 429 Z M 1325 416 L 1323 418 Z M 349 408 L 349 416 Z M 1573 404 L 1573 420 Z M 691 404 L 691 405 Z M 1250 400 L 1267 400 Z M 678 400 L 678 401 Z M 245 397 L 245 398 Z M 132 393 L 132 394 Z M 45 393 L 45 395 Z M 303 392 L 303 393 Z M 292 391 L 292 393 Z M 1055 389 L 1055 428 Z M 687 385 L 687 386 Z M 244 384 L 244 386 Z M 1809 383 L 1809 386 Z M 1686 382 L 1731 382 Z M 46 382 L 46 383 Z M 1855 381 L 1855 382 Z M 305 377 L 305 378 Z M 459 375 L 459 378 Z M 1338 372 L 1338 378 Z M 47 372 L 47 373 Z M 1577 370 L 1577 371 Z M 1853 365 L 1853 366 Z M 3 356 L 3 358 Z M 1637 351 L 1635 353 Z M 51 351 L 51 352 Z M 401 350 L 402 351 Z M 1321 328 L 1322 329 Z M 1597 327 L 1596 328 Z M 326 327 L 325 328 Z M 1359 308 L 1359 518 Z M 1055 308 L 1055 349 Z M 397 304 L 398 304 Z M 365 304 L 366 304 Z M 196 304 L 197 304 Z M 89 270 L 88 271 Z M 62 230 L 61 231 Z M 1788 225 L 1791 228 Z M 1785 222 L 1786 223 Z M 72 220 L 71 221 Z M 1777 215 L 1778 216 Z M 137 186 L 138 186 Z M 1872 185 L 1873 185 Z M 1856 185 L 1857 185 Z M 1708 185 L 1710 185 Z M 145 185 L 146 185 Z M 1828 172 L 1829 173 Z M 1904 169 L 1903 170 Z M 1898 160 L 1897 161 Z M 1890 160 L 1890 161 Z M 1851 138 L 1851 160 Z M 1809 130 L 1809 131 Z M 1882 129 L 1881 130 Z M 1874 123 L 1873 124 Z M 1865 111 L 1867 111 Z M 1851 111 L 1851 127 Z M 1870 102 L 1871 102 Z M 1895 98 L 1897 100 Z M 1828 89 L 1827 90 Z M 1856 76 L 1857 76 Z"/>
  </g>
</svg>