<?xml version="1.0" encoding="UTF-8"?>
<svg xmlns="http://www.w3.org/2000/svg" width="64" height="64" viewBox="0 0 64 64" fill="none">
  <!-- Favicon - ultra minimal -->
  <defs>
    <linearGradient id="fGrad" x1="0" y1="0" x2="64" y2="64" gradientUnits="userSpaceOnUse">
      <stop offset="0%" stop-color="#00ddb3"/>
      <stop offset="100%" stop-color="#005c4b"/>
    </linearGradient>
  </defs>

  <!-- Rounded square -->
  <rect x="4" y="4" width="56" height="56" rx="14" fill="url(#fGrad)"/>
  
  <!-- Mini document -->
  <g transform="rotate(-2, 28, 30)">
    <path d="M15 12h16l8 8v24c0 2-1.5 3.5-3.5 3.5H15c-2 0-3.5-1.5-3.5-3.5V15.5C11.5 13.5 13 12 15 12z" fill="#ffffff" opacity="0.9"/>
    <path d="M31 12l8 8h-5c-1.7 0-3-1.3-3-3v-5z" fill="#b8fff0" opacity="0.7"/>
  </g>
  
  <!-- Mini ascending bars -->
  <g transform="rotate(-2, 28, 30)">
    <rect x="15" y="33" width="4" height="7" rx="1" fill="#0d9488" opacity="0.6"/>
    <rect x="20.5" y="30" width="4" height="10" rx="1" fill="#0d9488" opacity="0.7"/>
    <rect x="26" y="26" width="4" height="14" rx="1" fill="#0d9488" opacity="0.85"/>
    <rect x="31.5" y="22" width="4" height="18" rx="1" fill="#0d9488" opacity="0.95"/>
  </g>

  <!-- Mini checkmark -->
  <path d="M34 30l5 5.5 11-12" fill="none" stroke="#ffffff" stroke-width="4" stroke-linecap="round" stroke-linejoin="round"/>
</svg>
