<?xml version="1.0" encoding="UTF-8"?>
<svg xmlns="http://www.w3.org/2000/svg" width="190" height="52" viewBox="0 0 190 52" fill="none">
  <!-- Compact for sidebar / navbar -->
  <defs>
    <linearGradient id="cGrad" x1="0" y1="0" x2="44" y2="44" gradientUnits="userSpaceOnUse">
      <stop offset="0%" stop-color="#00ddb3"/>
      <stop offset="100%" stop-color="#005c4b"/>
    </linearGradient>
    <linearGradient id="cBidGrad" x1="0" y1="12" x2="0" y2="34" gradientUnits="userSpaceOnUse">
      <stop offset="0%" stop-color="#00e6be"/>
      <stop offset="100%" stop-color="#00c9a7"/>
    </linearGradient>
  </defs>

  <!-- Mini icon -->
  <rect x="3" y="4" width="44" height="44" rx="11" fill="url(#cGrad)"/>
  
  <!-- Mini document -->
  <g transform="rotate(-2, 25, 26)">
    <path d="M14 12h14l7 7v20c0 1.5-1.2 2.7-2.7 2.7H14c-1.5 0-2.7-1.2-2.7-2.7V14.7c0-1.5 1.2-2.7 2.7-2.7z" fill="#ffffff" opacity="0.92"/>
    <path d="M28 12l7 7h-4.3c-1.5 0-2.7-1.2-2.7-2.7V12z" fill="#c8f7ed" opacity="0.8"/>
  </g>
  
  <!-- Mini bars -->
  <g transform="rotate(-2, 25, 26)">
    <rect x="15" y="30" width="4" height="8" rx="1" fill="#0d9488" opacity="0.6"/>
    <rect x="20.5" y="27" width="4" height="11" rx="1" fill="#0d9488" opacity="0.7"/>
    <rect x="26" y="24" width="4" height="14" rx="1" fill="#0d9488" opacity="0.85"/>
    <rect x="31.5" y="21" width="4" height="17" rx="1" fill="#0d9488" opacity="0.95"/>
  </g>

  <!-- Mini checkmark -->
  <path d="M30 27l4 4.5 9-10" fill="none" stroke="#ffffff" stroke-width="3" stroke-linecap="round" stroke-linejoin="round"/>

  <!-- Text -->
  <text x="58" y="24" font-family="'Segoe UI Light', 'Helvetica Neue', sans-serif" 
        font-size="18" font-weight="200" letter-spacing="1" fill="#cbd5e1">SMART</text>
  <text x="122" y="24" font-family="'Segoe UI Black', 'Helvetica Neue', sans-serif" 
        font-size="18" font-weight="900" letter-spacing="-0.5" fill="#ffffff">BID</text>
  
  <!-- Accent line -->
  <rect x="58" y="29" width="72" height="1.5" rx="0.75" fill="#00c9a7" opacity="0.5"/>
  
  <!-- Version -->
  <text x="158" y="24" font-family="'Segoe UI', sans-serif" 
        font-size="9" font-weight="600" fill="#00c9a7" opacity="0.7">2.0</text>
  
  <!-- Subtitle -->
  <text x="58" y="44" font-family="'Segoe UI', sans-serif" 
        font-size="8" font-weight="500" letter-spacing="1.5" fill="#64748b">ENGINEERING BID SYSTEM</text>
</svg>
